<svg class="svg-standalone-icon" width="100%" viewBox="204.14412378400985 115.00000000000001 141.71175243198033 140.50335334156625"><g data-paper-data="{&quot;fillRule&quot;:&quot;evenodd&quot;,&quot;fillRuleOriginal&quot;:&quot;evenodd&quot;,&quot;isIcon&quot;:true,&quot;iconStyle&quot;:&quot;standalone&quot;,&quot;selectedEffects&quot;:{&quot;container&quot;:&quot;&quot;,&quot;transformation&quot;:&quot;&quot;,&quot;pattern&quot;:&quot;&quot;},&quot;bounds&quot;:{&quot;x&quot;:204.14412378400985,&quot;y&quot;:115.00000000000001,&quot;width&quot;:141.71175243198033,&quot;height&quot;:140.50335334156625},&quot;iconType&quot;:&quot;initial&quot;,&quot;initialText&quot;:&quot;PS&quot;,&quot;rawInitialId&quot;:493,&quot;disableIconEffects&quot;:&quot;true&quot;,&quot;monogramSpecial&quot;:&quot;half-moon&quot;,&quot;suitableAsStandaloneIcon&quot;:true}" fill-rule="evenodd"><path d="M204.14412,185.25168c0,-38.79919 31.45275,-70.25168 70.25168,-70.25168c16.36226,0 31.418,5.59373 43.35929,14.97346c-9.09389,-5.06363 -19.567,-7.9484 -30.71397,-7.9484c-34.91906,0 -63.22651,28.30766 -63.22651,63.22661c0,34.91906 28.30745,63.22651 63.22651,63.22651c11.14697,0 21.62009,-2.88462 30.71397,-7.94814c-11.94129,9.37953 -26.99703,14.97331 -43.35929,14.97331c-38.79893,0 -70.25168,-31.45275 -70.25168,-70.25168zM345.85588,185.25168c0,31.03914 -25.1623,56.20134 -56.2015,56.20134c-13.08983,0 -25.13441,-4.47504 -34.68738,-11.97861c7.27495,4.0508 15.65354,6.35846 24.57114,6.35846c27.93548,0 50.5815,-22.64597 50.5815,-50.58119c0,-27.93548 -22.64602,-50.58098 -50.5815,-50.58098c-8.91759,0 -17.29618,2.3073 -24.57114,6.35809c9.55298,-7.50357 21.59755,-11.97866 34.68738,-11.97866c31.03919,0 56.2015,25.1623 56.2015,56.20155zM247.2997,205.59251v-14.6555h-2.08462c-0.58959,0 -1.09495,-0.21057 -1.51609,-0.6317c-0.42114,-0.42114 -0.6317,-0.9265 -0.6317,-1.51609c0,-0.58959 0.21057,-1.0739 0.6317,-1.45292c0.42114,-0.42114 0.9265,-0.6317 1.51609,-0.6317h2.08462v-22.7413l0.12634,-0.31585v-0.06317c0.12634,-0.25268 0.27374,-0.48431 0.44219,-0.69487c0.21057,-0.16846 0.44219,-0.31585 0.69487,-0.44219l0.31585,-0.06317l0.12634,-0.06317l0.37902,-0.06317l10.61261,0.06317c4.21135,0 7.83312,1.38975 10.86529,4.16924c2.99006,2.77949 4.48509,6.14857 4.48509,10.10725c0,3.91656 -1.49503,7.28564 -4.48509,10.10725c-3.03217,2.77949 -6.65394,4.16924 -10.86529,4.16924l-4.92728,0.06317h-3.53754v14.6555c0,0.58959 -0.21057,1.09495 -0.6317,1.51609c-0.42114,0.42114 -0.9265,0.6317 -1.51609,0.6317c-0.58959,0 -1.09495,-0.21057 -1.51609,-0.6317c-0.37902,-0.42114 -0.56853,-0.9265 -0.56853,-1.51609zM306.93245,194.22186c0,3.87444 -1.49503,7.18035 -4.48509,9.91774c-1.43186,1.34763 -3.03217,2.35836 -4.80094,3.03217c-1.81088,0.71593 -3.76916,1.0739 -5.87484,1.0739c-4.16924,0 -7.72783,-1.36869 -10.67578,-4.10607c-2.94795,-2.73738 -4.42192,-6.04329 -4.42192,-9.91774c0,-0.58959 0.21057,-1.09495 0.6317,-1.51609c0.42114,-0.42114 0.9265,-0.6317 1.51609,-0.6317c0.58959,0 1.09495,0.21057 1.51609,0.6317c0.42114,0.42114 0.6317,0.9265 0.6317,1.51609c0,2.69527 1.05284,4.99045 3.15852,6.88556c2.10567,1.89511 4.65354,2.84266 7.64361,2.84266c2.99006,0 5.55899,-0.94755 7.70678,-2.84266c2.10567,-1.89511 3.15852,-4.19029 3.15852,-6.88556c0,-1.72665 -0.48431,-3.34803 -1.45292,-4.86411c-0.54748,-0.88438 -1.66348,-1.60031 -3.34803,-2.14779c-0.71593,-0.25268 -1.5582,-0.48431 -2.52681,-0.69487l-2.65315,-0.56853l-2.40047,-0.44219c-0.88438,-0.21057 -1.66348,-0.42114 -2.3373,-0.6317c-1.68454,-0.46325 -3.01112,-1.0739 -3.97973,-1.83194h-0.06317c-3.1164,-2.35836 -4.6746,-5.39053 -4.6746,-9.09652c0,-3.24274 1.24235,-6.00118 3.72705,-8.27531c2.44259,-2.27413 5.39053,-3.4112 8.84384,-3.4112c3.49542,0 6.46443,1.13707 8.90701,3.4112c2.4847,2.27413 3.72705,5.03256 3.72705,8.27531c0,0.58959 -0.21057,1.09495 -0.6317,1.51609c-0.42114,0.42114 -0.9265,0.6317 -1.51609,0.6317c-0.58959,0 -1.09495,-0.21057 -1.51609,-0.6317c-0.42114,-0.42114 -0.6317,-0.9265 -0.6317,-1.51609c0,-2.06357 -0.82121,-3.81127 -2.46364,-5.24314c-1.60031,-1.47397 -3.55859,-2.21096 -5.87484,-2.21096c-2.27413,0 -4.21135,0.73699 -5.81167,2.21096c-1.64243,1.43186 -2.46364,3.17957 -2.46364,5.24314c0,2.27413 0.96861,4.14818 2.90583,5.62216c0.67382,0.50536 1.7056,0.94755 3.09535,1.32658c0.54748,0.16846 1.20024,0.31585 1.95828,0.44219l2.02145,0.44219c1.47397,0.2948 2.56893,0.52642 3.28486,0.69487c1.17918,0.2948 2.21096,0.61065 3.09535,0.94755c2.18991,0.84227 3.79022,2.0004 4.80094,3.47437l0.18951,0.25268c1.38975,2.14779 2.08462,4.50615 2.08462,7.07507zM259.99693,166.55327h-8.46482v20.15132h3.47437l4.92728,-0.06317c3.07429,0 5.70638,-0.98967 7.89629,-2.969c2.18991,-1.97933 3.28486,-4.33769 3.28486,-7.07507c0,-2.77949 -1.09495,-5.13785 -3.28486,-7.07507c-2.18991,-1.97933 -4.80094,-2.969 -7.83312,-2.969z" data-paper-data="{&quot;isPathIcon&quot;:true}" style="fill: rgb(255, 255, 255);"></path></g></svg>