<svg xmlns="http://www.w3.org/2000/svg" xmlns:xlink="http://www.w3.org/1999/xlink" version="1.1" width="1000" height="1000" viewBox="0 0 1000 1000" xml:space="preserve">
<desc>Created with Fabric.js 3.5.0</desc>
<defs>
</defs>
<rect x="0" y="0" width="100%" height="100%" fill="#ffffff"/>
<g transform="matrix(3.8469 0 0 3.8469 1343.2357 561.0187)" id="868786">
<g style="" vector-effect="non-scaling-stroke">
		<g transform="matrix(1.6529 0 0 1.6529 -220.408 0.0003)" id="element-id-3193">
<path style="stroke: none; stroke-width: 3; stroke-dasharray: none; stroke-linecap: butt; stroke-dashoffset: 0; stroke-linejoin: miter; stroke-miterlimit: 10; is-custom-font: none; font-file-url: none; fill: rgb(44,213,196); fill-rule: nonzero; opacity: 1;" transform=" translate(-141.4028, -235)" d="M 101.724 221.49232 v 6.47243 l 23.07562 10.97499 v -6.61314 z M 174.04637 192.08498 v 51.92014 l 22.93492 10.69358 v -8.58301 l -17.16601 -7.31666 l 0.70352 -1.68846 l 30.39228 13.50768 l 0.70352 -1.68846 l -14.63332 -6.61314 v -56.4227 h -23.07562 v 6.19102 z M 217.80562 276.36727 l -20.82434 -10.27146 v 0 l -62.61372 -29.26664 l 15.19614 21.94998 l 47.41759 23.35703 v -11.53781 z M 149.7044 260.88972 l -11.39711 -5.20609 l -0.84423 1.68846 l 16.32178 7.45737 l 13.36698 19.27658 h 29.54805 z M 101.724 237.25128 v 46.85476 h 23.07562 v -35.45766 z M 67.11057 213.75355 v -0.1407 l -1.26635 -0.56282 l -0.84423 1.68846 l 26.87465 12.66345 l -1.12564 2.39199 l 34.05061 16.7439 v -5.6282 z M 163.21208 238.93974 l -36.724 -53.04578 h -24.76408 v 19.41729 l -12.80416 -1.12564 z" stroke-linecap="round"/>
</g>
		<g transform="matrix(1.6529 0 0 1.6529 159.0918 -27.2724)">
<rect style="stroke: none; stroke-width: 2; stroke-dasharray: none; stroke-linecap: butt; stroke-dashoffset: 0; stroke-linejoin: miter; stroke-miterlimit: 4; is-custom-font: none; font-file-url: none; fill: rgb(255,255,255); fill-opacity: 0; fill-rule: nonzero; opacity: 1;" x="-114" y="-34.5" rx="0" ry="0" width="228" height="69"/>
</g>
		<g transform="matrix(1.6529 0 0 1.6529 -220.2474 0.0004)">
<rect style="stroke: none; stroke-width: 2; stroke-dasharray: none; stroke-linecap: butt; stroke-dashoffset: 0; stroke-linejoin: miter; stroke-miterlimit: 4; is-custom-font: none; font-file-url: none; fill: rgb(255,255,255); fill-opacity: 0; fill-rule: nonzero; opacity: 1;" x="-76.5" y="-49" rx="0" ry="0" width="153" height="98"/>
</g>
		<g transform="matrix(1.6529 0 0 1.6529 -220.2474 0.0004)">
<rect style="stroke: none; stroke-width: 2; stroke-dasharray: none; stroke-linecap: butt; stroke-dashoffset: 0; stroke-linejoin: miter; stroke-miterlimit: 4; is-custom-font: none; font-file-url: none; fill: rgb(255,255,255); fill-opacity: 0; fill-rule: nonzero; opacity: 1;" x="-76.5" y="-49" rx="0" ry="0" width="153" height="98"/>
</g>
		<g transform="matrix(1.6529 0 0 1.6529 21.0746 -27.2724)">
<rect style="stroke: none; stroke-width: 2; stroke-dasharray: none; stroke-linecap: butt; stroke-dashoffset: 0; stroke-linejoin: miter; stroke-miterlimit: 4; is-custom-font: none; font-file-url: none; fill: rgb(255,255,255); fill-opacity: 0; fill-rule: nonzero; opacity: 1;" x="-30.5" y="-34.5" rx="0" ry="0" width="61" height="69"/>
</g>
		<g transform="matrix(1.6529 0 0 1.6529 218.5953 -28.0989)">
<rect style="stroke: none; stroke-width: 2; stroke-dasharray: none; stroke-linecap: butt; stroke-dashoffset: 0; stroke-linejoin: miter; stroke-miterlimit: 4; is-custom-font: none; font-file-url: none; fill: rgb(255,255,255); fill-opacity: 0; fill-rule: nonzero; opacity: 1;" x="-31" y="-33" rx="0" ry="0" width="62" height="66"/>
</g>
		<g transform="matrix(1.6529 0 0 1.6529 121.9015 67.7687)">
<rect style="stroke: none; stroke-width: 2; stroke-dasharray: none; stroke-linecap: butt; stroke-dashoffset: 0; stroke-linejoin: miter; stroke-miterlimit: 4; is-custom-font: none; font-file-url: none; fill: rgb(255,255,255); fill-opacity: 0; fill-rule: nonzero; opacity: 1;" x="-91.5" y="-10" rx="0" ry="0" width="183" height="20"/>
</g>
		<g transform="matrix(1.6529 0 0 1.6529 307.8514 -28.0989)">
<rect style="stroke: none; stroke-width: 2; stroke-dasharray: none; stroke-linecap: butt; stroke-dashoffset: 0; stroke-linejoin: miter; stroke-miterlimit: 4; is-custom-font: none; font-file-url: none; fill: rgb(255,255,255); fill-opacity: 0; fill-rule: nonzero; opacity: 1;" x="-24" y="-33" rx="0" ry="0" width="48" height="66"/>
</g>
		<g transform="matrix(1.6529 0 0 1.6529 126.8597 -28.0989)">
<rect style="stroke: none; stroke-width: 2; stroke-dasharray: none; stroke-linecap: butt; stroke-dashoffset: 0; stroke-linejoin: miter; stroke-miterlimit: 4; is-custom-font: none; font-file-url: none; fill: rgb(255,255,255); fill-opacity: 0; fill-rule: nonzero; opacity: 1;" x="-20.5" y="-33" rx="0" ry="0" width="41" height="66"/>
</g>
		<g transform="matrix(1.6529 0 0 1.6529 183.058 67.7687)">
<rect style="stroke: none; stroke-width: 2; stroke-dasharray: none; stroke-linecap: butt; stroke-dashoffset: 0; stroke-linejoin: miter; stroke-miterlimit: 4; is-custom-font: none; font-file-url: none; fill: rgb(255,255,255); fill-opacity: 0; fill-rule: nonzero; opacity: 1;" x="-8.5" y="-10" rx="0" ry="0" width="17" height="20"/>
</g>
		<g transform="matrix(1.6529 0 0 1.6529 -17.7685 68.5952)">
<rect style="stroke: none; stroke-width: 2; stroke-dasharray: none; stroke-linecap: butt; stroke-dashoffset: 0; stroke-linejoin: miter; stroke-miterlimit: 4; is-custom-font: none; font-file-url: none; fill: rgb(255,255,255); fill-opacity: 0; fill-rule: nonzero; opacity: 1;" x="-7" y="-9.5" rx="0" ry="0" width="14" height="19"/>
</g>
		<g transform="matrix(1.6529 0 0 1.6529 58.2645 68.5952)">
<rect style="stroke: none; stroke-width: 2; stroke-dasharray: none; stroke-linecap: butt; stroke-dashoffset: 0; stroke-linejoin: miter; stroke-miterlimit: 4; is-custom-font: none; font-file-url: none; fill: rgb(255,255,255); fill-opacity: 0; fill-rule: nonzero; opacity: 1;" x="-7" y="-9.5" rx="0" ry="0" width="14" height="19"/>
</g>
		<g transform="matrix(1.6529 0 0 1.6529 261.5703 68.5952)">
<rect style="stroke: none; stroke-width: 2; stroke-dasharray: none; stroke-linecap: butt; stroke-dashoffset: 0; stroke-linejoin: miter; stroke-miterlimit: 4; is-custom-font: none; font-file-url: none; fill: rgb(255,255,255); fill-opacity: 0; fill-rule: nonzero; opacity: 1;" x="-7" y="-9.5" rx="0" ry="0" width="14" height="19"/>
</g>
		<g transform="matrix(1.6529 0 0 1.6529 117.7686 68.5952)">
<rect style="stroke: none; stroke-width: 2; stroke-dasharray: none; stroke-linecap: butt; stroke-dashoffset: 0; stroke-linejoin: miter; stroke-miterlimit: 4; is-custom-font: none; font-file-url: none; fill: rgb(255,255,255); fill-opacity: 0; fill-rule: nonzero; opacity: 1;" x="-2" y="-9.5" rx="0" ry="0" width="4" height="19"/>
</g>
</g>
</g>
</svg>