<svg xmlns:mydata="http://www.w3.org/2000/svg" mydata:contrastcolor="271d3b" mydata:template="Contrast" mydata:presentation="2.5" mydata:layouttype="undefined" mydata:specialfontid="undefined" mydata:id1="946" mydata:id2="008" mydata:companyname="Printly Solutions" mydata:companytagline="Where Printing Meets Excellence" version="1.1" xmlns="http://www.w3.org/2000/svg" xmlns:xlink="http://www.w3.org/1999/xlink" viewBox="0 35 550 400"><defs><linearGradient x1="106.33582" y1="235" x2="443.66418" y2="235" gradientUnits="userSpaceOnUse" id="color-1336340071"><stop offset="0" stop-color="#8360c3"></stop><stop offset="1" stop-color="#2ebf91"></stop></linearGradient></defs><g fill="url(#color-1336340071)" fill-rule="none" stroke="none" stroke-width="1" stroke-linecap="butt" stroke-linejoin="miter" stroke-miterlimit="10" stroke-dasharray="" stroke-dashoffset="0" font-family="none" font-weight="none" font-size="none" text-anchor="none" style="mix-blend-mode: normal"><g data-paper-data="{&quot;isGlobalGroup&quot;:true,&quot;bounds&quot;:{&quot;x&quot;:106.3358213186917,&quot;y&quot;:115.00000000000001,&quot;width&quot;:337.32835736261654,&quot;height&quot;:240}}"><g data-paper-data="{&quot;isSecondaryText&quot;:true}" fill-rule="nonzero"><path d="M115.12704,345.1955l1.82752,6.58549l1.82111,-6.57908c0.0342,-0.13252 0.11222,-0.2426 0.23405,-0.33024c0.12183,-0.08764 0.26184,-0.13145 0.42001,-0.13145c0.1368,0 0.26611,0.03954 0.38795,0.11863c0.12183,0.07909 0.20626,0.1913 0.25329,0.33665l1.82752,6.58549l1.83393,-6.58549c0.02992,-0.09405 0.08336,-0.17955 0.16031,-0.25649c0.13252,-0.13252 0.29283,-0.19878 0.48093,-0.19878c0.1881,0 0.34734,0.06626 0.47772,0.19878c0.13038,0.13252 0.19558,0.29283 0.19558,0.48093c-0.00427,0.0855 -0.01924,0.17527 -0.04489,0.26932l-2.41746,8.75928c-0.05985,0.16672 -0.14962,0.30031 -0.26932,0.40077c-0.1197,0.10046 -0.25863,0.15069 -0.4168,0.15069c-0.19237,0 -0.35054,-0.0684 -0.47451,-0.2052c-0.08977,-0.09405 -0.15817,-0.2052 -0.2052,-0.33344l-1.78905,-6.4829l-1.78905,6.47007c-0.05985,0.16672 -0.14962,0.30031 -0.26932,0.40077c-0.1197,0.10046 -0.25863,0.15069 -0.4168,0.15069c-0.19237,0 -0.35268,-0.0684 -0.48093,-0.2052c-0.0855,-0.0855 -0.15176,-0.19665 -0.19878,-0.33344l-2.43028,-8.77852c-0.02565,-0.09832 -0.03847,-0.18596 -0.03847,-0.26291c0,-0.1881 0.06626,-0.3484 0.19878,-0.48093c0.13252,-0.13252 0.29283,-0.19878 0.48093,-0.19878c0.1881,0 0.3484,0.06626 0.48093,0.19878c0.07267,0.07695 0.12611,0.16245 0.16031,0.25649z" data-paper-data="{&quot;glyphName&quot;:&quot;W&quot;,&quot;glyphIndex&quot;:0,&quot;firstGlyphOfWord&quot;:true,&quot;word&quot;:1}"></path><path d="M136.10614,354.32029c0,0.1881 -0.06626,0.3484 -0.19878,0.48093c-0.13252,0.13252 -0.29283,0.19878 -0.48093,0.19878c-0.1881,0 -0.3484,-0.06626 -0.48093,-0.19878c-0.13252,-0.13252 -0.19878,-0.29283 -0.19878,-0.48093v-3.77047h-4.57201v3.77047c0,0.1881 -0.06626,0.3484 -0.19878,0.48093c-0.13252,0.13252 -0.29283,0.19878 -0.48093,0.19878c-0.1881,0 -0.3484,-0.06626 -0.48093,-0.19878c-0.13252,-0.13252 -0.19878,-0.29283 -0.19878,-0.48093v-8.90036c0,-0.1881 0.06626,-0.3484 0.19878,-0.48093c0.13252,-0.13252 0.29283,-0.19878 0.48093,-0.19878c0.1881,0 0.3484,0.06626 0.48093,0.19878c0.13252,0.13252 0.19878,0.29283 0.19878,0.48093v3.77047h4.57201v-3.77047c0,-0.1881 0.06626,-0.3484 0.19878,-0.48093c0.13252,-0.13252 0.29283,-0.19878 0.48093,-0.19878c0.1881,0 0.3484,0.06626 0.48093,0.19878c0.13252,0.13252 0.19878,0.29283 0.19878,0.48093z" data-paper-data="{&quot;glyphName&quot;:&quot;H&quot;,&quot;glyphIndex&quot;:1,&quot;word&quot;:1}"></path><path d="M146.37019,353.64058c0.1881,0 0.3484,0.06626 0.48093,0.19878c0.13252,0.13252 0.19878,0.29283 0.19878,0.48093c0,0.1881 -0.06626,0.3484 -0.19878,0.48093c-0.13252,0.13252 -0.29283,0.19878 -0.48093,0.19878h-5.93143c-0.09832,0 -0.1881,-0.0171 -0.26932,-0.0513c-0.08122,-0.0342 -0.15283,-0.08229 -0.21481,-0.14428c-0.06199,-0.06199 -0.11008,-0.13359 -0.14428,-0.21481c-0.0342,-0.08122 -0.0513,-0.171 -0.0513,-0.26932v-8.90036c0,-0.09405 0.0171,-0.18275 0.0513,-0.26611c0.0342,-0.08336 0.08229,-0.15603 0.14428,-0.21802c0.06199,-0.06199 0.13359,-0.11008 0.21481,-0.14428c0.08122,-0.0342 0.171,-0.0513 0.26932,-0.0513h5.93143c0.1881,0 0.3484,0.06626 0.48093,0.19878c0.13252,0.13252 0.19878,0.29283 0.19878,0.48093c0,0.1881 -0.06626,0.3484 -0.19878,0.48093c-0.13252,0.13252 -0.29283,0.19878 -0.48093,0.19878h-5.25172v3.09076h3.77047c0.1881,0 0.3484,0.06626 0.48093,0.19878c0.13252,0.13252 0.19878,0.29283 0.19878,0.48093c0,0.1881 -0.06626,0.3484 -0.19878,0.48093c-0.13252,0.13252 -0.29283,0.19878 -0.48093,0.19878h-3.77047v3.09076z" data-paper-data="{&quot;glyphName&quot;:&quot;E&quot;,&quot;glyphIndex&quot;:2,&quot;word&quot;:1}"></path><path d="M152.05582,346.09964v3.58451h1.79546c0.24794,0 0.48093,-0.04702 0.69895,-0.14107c0.21802,-0.09405 0.40718,-0.22336 0.56749,-0.38795c0.16031,-0.16458 0.28749,-0.35482 0.38154,-0.5707c0.09405,-0.21588 0.14107,-0.44566 0.14107,-0.68933c0,-0.24794 -0.04702,-0.48093 -0.14107,-0.69895c-0.09405,-0.21802 -0.2223,-0.40825 -0.38474,-0.5707c-0.16245,-0.16245 -0.35268,-0.29069 -0.5707,-0.38474c-0.21802,-0.09405 -0.44887,-0.14107 -0.69253,-0.14107zM150.6964,354.32029v-8.90036c0,-0.09405 0.0171,-0.18275 0.0513,-0.26611c0.0342,-0.08336 0.08229,-0.15603 0.14428,-0.21802c0.06199,-0.06199 0.13359,-0.11008 0.21481,-0.14428c0.08122,-0.0342 0.171,-0.0513 0.26932,-0.0513h2.47517c0.43177,0 0.83895,0.08336 1.22155,0.25008c0.3826,0.16672 0.71605,0.39329 1.00033,0.67971c0.28428,0.28642 0.50978,0.62093 0.6765,1.00353c0.16672,0.3826 0.25008,0.78979 0.25008,1.22155c0,0.28214 -0.03527,0.55681 -0.1058,0.82399c-0.07054,0.26718 -0.17527,0.5194 -0.31421,0.75666c-0.13893,0.23726 -0.31207,0.45742 -0.5194,0.66047c-0.20733,0.20306 -0.4478,0.38154 -0.72139,0.53543l2.04554,3.27672c0.07267,0.1197 0.10901,0.24367 0.10901,0.37192c0,0.09832 -0.0171,0.1881 -0.0513,0.26932c-0.0342,0.08122 -0.08229,0.15283 -0.14428,0.21481c-0.06199,0.06199 -0.13466,0.11008 -0.21802,0.14428c-0.08336,0.0342 -0.17206,0.0513 -0.26611,0.0513c-0.23939,0 -0.4339,-0.11115 -0.58352,-0.33344l-2.26356,-3.62298h-1.91088v3.27672c0,0.1881 -0.06626,0.3484 -0.19878,0.48093c-0.13252,0.13252 -0.29283,0.19878 -0.48093,0.19878c-0.1881,0 -0.3484,-0.06626 -0.48093,-0.19878c-0.13252,-0.13252 -0.19878,-0.29283 -0.19878,-0.48093z" data-paper-data="{&quot;glyphName&quot;:&quot;R&quot;,&quot;glyphIndex&quot;:3,&quot;word&quot;:1}"></path><path d="M167.74473,353.64058c0.1881,0 0.3484,0.06626 0.48093,0.19878c0.13252,0.13252 0.19878,0.29283 0.19878,0.48093c0,0.1881 -0.06626,0.3484 -0.19878,0.48093c-0.13252,0.13252 -0.29283,0.19878 -0.48093,0.19878h-5.93143c-0.09832,0 -0.1881,-0.0171 -0.26932,-0.0513c-0.08122,-0.0342 -0.15283,-0.08229 -0.21481,-0.14428c-0.06199,-0.06199 -0.11008,-0.13359 -0.14428,-0.21481c-0.0342,-0.08122 -0.0513,-0.171 -0.0513,-0.26932v-8.90036c0,-0.09405 0.0171,-0.18275 0.0513,-0.26611c0.0342,-0.08336 0.08229,-0.15603 0.14428,-0.21802c0.06199,-0.06199 0.13359,-0.11008 0.21481,-0.14428c0.08122,-0.0342 0.171,-0.0513 0.26932,-0.0513h5.93143c0.1881,0 0.3484,0.06626 0.48093,0.19878c0.13252,0.13252 0.19878,0.29283 0.19878,0.48093c0,0.1881 -0.06626,0.3484 -0.19878,0.48093c-0.13252,0.13252 -0.29283,0.19878 -0.48093,0.19878h-5.25172v3.09076h3.77047c0.1881,0 0.3484,0.06626 0.48093,0.19878c0.13252,0.13252 0.19878,0.29283 0.19878,0.48093c0,0.1881 -0.06626,0.3484 -0.19878,0.48093c-0.13252,0.13252 -0.29283,0.19878 -0.48093,0.19878h-3.77047v3.09076z" data-paper-data="{&quot;glyphName&quot;:&quot;E&quot;,&quot;glyphIndex&quot;:4,&quot;lastGlyphOfWord&quot;:true,&quot;word&quot;:1}"></path><path d="M180.0073,346.09964v4.07826h1.2953c0.27787,0 0.53971,-0.05344 0.78551,-0.16031c0.24581,-0.10687 0.46169,-0.25222 0.64765,-0.43604c0.18596,-0.18382 0.33344,-0.3997 0.44245,-0.64765c0.10901,-0.24794 0.16352,-0.51299 0.16352,-0.79513c0,-0.28642 -0.05451,-0.5536 -0.16352,-0.80155c-0.10901,-0.24794 -0.25649,-0.46383 -0.44245,-0.64765c-0.18596,-0.18382 -0.40291,-0.3281 -0.65085,-0.43283c-0.24794,-0.10474 -0.50871,-0.1571 -0.78231,-0.1571zM178.64788,354.32029v-8.90036c0,-0.09405 0.0171,-0.18275 0.0513,-0.26611c0.0342,-0.08336 0.08229,-0.15603 0.14428,-0.21802c0.06199,-0.06199 0.13359,-0.11008 0.21481,-0.14428c0.08122,-0.0342 0.171,-0.0513 0.26932,-0.0513h1.97501c0.30779,0 0.60597,0.04061 0.89452,0.12183c0.28856,0.08122 0.55894,0.19665 0.81116,0.34627c0.25222,0.14962 0.48306,0.3281 0.69253,0.53543c0.20947,0.20733 0.38795,0.43711 0.53543,0.68933c0.14748,0.25222 0.26291,0.52261 0.34627,0.81116c0.08336,0.28856 0.12504,0.58673 0.12504,0.89452c0,0.93193 -0.33558,1.73347 -1.00674,2.40464c-0.66261,0.66261 -1.46202,0.99392 -2.39822,0.99392h-1.2953v2.78296c0,0.1881 -0.06626,0.3484 -0.19878,0.48093c-0.13252,0.13252 -0.29283,0.19878 -0.48093,0.19878c-0.1881,0 -0.3484,-0.06626 -0.48093,-0.19878c-0.13252,-0.13252 -0.19878,-0.29283 -0.19878,-0.48093z" data-paper-data="{&quot;glyphName&quot;:&quot;P&quot;,&quot;glyphIndex&quot;:5,&quot;firstGlyphOfWord&quot;:true,&quot;word&quot;:2}"></path><path d="M189.675,346.09964v3.58451h1.79546c0.24794,0 0.48093,-0.04702 0.69895,-0.14107c0.21802,-0.09405 0.40718,-0.22336 0.56749,-0.38795c0.16031,-0.16458 0.28749,-0.35482 0.38154,-0.5707c0.09405,-0.21588 0.14107,-0.44566 0.14107,-0.68933c0,-0.24794 -0.04702,-0.48093 -0.14107,-0.69895c-0.09405,-0.21802 -0.2223,-0.40825 -0.38474,-0.5707c-0.16245,-0.16245 -0.35268,-0.29069 -0.5707,-0.38474c-0.21802,-0.09405 -0.44887,-0.14107 -0.69253,-0.14107zM188.31558,354.32029v-8.90036c0,-0.09405 0.0171,-0.18275 0.0513,-0.26611c0.0342,-0.08336 0.08229,-0.15603 0.14428,-0.21802c0.06199,-0.06199 0.13359,-0.11008 0.21481,-0.14428c0.08122,-0.0342 0.171,-0.0513 0.26932,-0.0513h2.47517c0.43177,0 0.83895,0.08336 1.22155,0.25008c0.3826,0.16672 0.71605,0.39329 1.00033,0.67971c0.28428,0.28642 0.50978,0.62093 0.6765,1.00353c0.16672,0.3826 0.25008,0.78979 0.25008,1.22155c0,0.28214 -0.03527,0.55681 -0.1058,0.82399c-0.07054,0.26718 -0.17527,0.5194 -0.31421,0.75666c-0.13893,0.23726 -0.31207,0.45742 -0.5194,0.66047c-0.20733,0.20306 -0.4478,0.38154 -0.72139,0.53543l2.04554,3.27672c0.07267,0.1197 0.10901,0.24367 0.10901,0.37192c0,0.09832 -0.0171,0.1881 -0.0513,0.26932c-0.0342,0.08122 -0.08229,0.15283 -0.14428,0.21481c-0.06199,0.06199 -0.13466,0.11008 -0.21802,0.14428c-0.08336,0.0342 -0.17206,0.0513 -0.26611,0.0513c-0.23939,0 -0.4339,-0.11115 -0.58352,-0.33344l-2.26356,-3.62298h-1.91088v3.27672c0,0.1881 -0.06626,0.3484 -0.19878,0.48093c-0.13252,0.13252 -0.29283,0.19878 -0.48093,0.19878c-0.1881,0 -0.3484,-0.06626 -0.48093,-0.19878c-0.13252,-0.13252 -0.19878,-0.29283 -0.19878,-0.48093z" data-paper-data="{&quot;glyphName&quot;:&quot;R&quot;,&quot;glyphIndex&quot;:6,&quot;word&quot;:2}"></path><path d="M200.56105,354.32029c0,0.1881 -0.06626,0.3484 -0.19878,0.48093c-0.13252,0.13252 -0.29283,0.19878 -0.48093,0.19878c-0.1881,0 -0.3484,-0.06626 -0.48093,-0.19878c-0.13252,-0.13252 -0.19878,-0.29283 -0.19878,-0.48093v-8.90036c0,-0.1881 0.06626,-0.3484 0.19878,-0.48093c0.13252,-0.13252 0.29283,-0.19878 0.48093,-0.19878c0.1881,0 0.3484,0.06626 0.48093,0.19878c0.13252,0.13252 0.19878,0.29283 0.19878,0.48093z" data-paper-data="{&quot;glyphName&quot;:&quot;I&quot;,&quot;glyphIndex&quot;:7,&quot;word&quot;:2}"></path><path d="M204.57305,354.32029v-8.90036c0,-0.09405 0.0171,-0.18275 0.0513,-0.26611c0.0342,-0.08336 0.08229,-0.15603 0.14428,-0.21802c0.06199,-0.06199 0.13359,-0.11008 0.21481,-0.14428c0.08122,-0.0342 0.171,-0.0513 0.26932,-0.0513c0.20092,0 0.37619,0.08336 0.52581,0.25008l5.71983,7.35498v-6.92535c0,-0.1881 0.06626,-0.3484 0.19878,-0.48093c0.13252,-0.13252 0.29283,-0.19878 0.48093,-0.19878c0.1881,0 0.3484,0.06626 0.48093,0.19878c0.13252,0.13252 0.19878,0.29283 0.19878,0.48093v8.90036c0,0.09832 -0.0171,0.1881 -0.0513,0.26932c-0.0342,0.08122 -0.08229,0.15283 -0.14428,0.21481c-0.06199,0.06199 -0.13466,0.11008 -0.21802,0.14428c-0.08336,0.0342 -0.17206,0.0513 -0.26611,0.0513c-0.20092,0 -0.37405,-0.07909 -0.5194,-0.23726l-5.72624,-7.35498v6.91252c0,0.1881 -0.06626,0.3484 -0.19878,0.48093c-0.13252,0.13252 -0.29283,0.19878 -0.48093,0.19878c-0.1881,0 -0.3484,-0.06626 -0.48093,-0.19878c-0.13252,-0.13252 -0.19878,-0.29283 -0.19878,-0.48093z" data-paper-data="{&quot;glyphName&quot;:&quot;N&quot;,&quot;glyphIndex&quot;:8,&quot;word&quot;:2}"></path><path d="M223.64768,346.09964h-2.53288v8.22065c0,0.1881 -0.06626,0.3484 -0.19878,0.48093c-0.13252,0.13252 -0.29283,0.19878 -0.48093,0.19878c-0.1881,0 -0.3484,-0.06626 -0.48093,-0.19878c-0.13252,-0.13252 -0.19878,-0.29283 -0.19878,-0.48093v-8.22065h-2.53288c-0.1881,0 -0.3484,-0.06626 -0.48093,-0.19878c-0.13252,-0.13252 -0.19878,-0.29283 -0.19878,-0.48093c0,-0.1881 0.06626,-0.3484 0.19878,-0.48093c0.13252,-0.13252 0.29283,-0.19878 0.48093,-0.19878h6.42518c0.1881,0 0.3484,0.06626 0.48093,0.19878c0.13252,0.13252 0.19878,0.29283 0.19878,0.48093c0,0.1881 -0.06626,0.3484 -0.19878,0.48093c-0.13252,0.13252 -0.29283,0.19878 -0.48093,0.19878z" data-paper-data="{&quot;glyphName&quot;:&quot;T&quot;,&quot;glyphIndex&quot;:9,&quot;word&quot;:2}"></path><path d="M229.80141,354.32029c0,0.1881 -0.06626,0.3484 -0.19878,0.48093c-0.13252,0.13252 -0.29283,0.19878 -0.48093,0.19878c-0.1881,0 -0.3484,-0.06626 -0.48093,-0.19878c-0.13252,-0.13252 -0.19878,-0.29283 -0.19878,-0.48093v-8.90036c0,-0.1881 0.06626,-0.3484 0.19878,-0.48093c0.13252,-0.13252 0.29283,-0.19878 0.48093,-0.19878c0.1881,0 0.3484,0.06626 0.48093,0.19878c0.13252,0.13252 0.19878,0.29283 0.19878,0.48093z" data-paper-data="{&quot;glyphName&quot;:&quot;I&quot;,&quot;glyphIndex&quot;:10,&quot;word&quot;:2}"></path><path d="M233.81341,354.32029v-8.90036c0,-0.09405 0.0171,-0.18275 0.0513,-0.26611c0.0342,-0.08336 0.08229,-0.15603 0.14428,-0.21802c0.06199,-0.06199 0.13359,-0.11008 0.21481,-0.14428c0.08122,-0.0342 0.171,-0.0513 0.26932,-0.0513c0.20092,0 0.37619,0.08336 0.52581,0.25008l5.71983,7.35498v-6.92535c0,-0.1881 0.06626,-0.3484 0.19878,-0.48093c0.13252,-0.13252 0.29283,-0.19878 0.48093,-0.19878c0.1881,0 0.3484,0.06626 0.48093,0.19878c0.13252,0.13252 0.19878,0.29283 0.19878,0.48093v8.90036c0,0.09832 -0.0171,0.1881 -0.0513,0.26932c-0.0342,0.08122 -0.08229,0.15283 -0.14428,0.21481c-0.06199,0.06199 -0.13466,0.11008 -0.21802,0.14428c-0.08336,0.0342 -0.17206,0.0513 -0.26611,0.0513c-0.20092,0 -0.37405,-0.07909 -0.5194,-0.23726l-5.72624,-7.35498v6.91252c0,0.1881 -0.06626,0.3484 -0.19878,0.48093c-0.13252,0.13252 -0.29283,0.19878 -0.48093,0.19878c-0.1881,0 -0.3484,-0.06626 -0.48093,-0.19878c-0.13252,-0.13252 -0.19878,-0.29283 -0.19878,-0.48093z" data-paper-data="{&quot;glyphName&quot;:&quot;N&quot;,&quot;glyphIndex&quot;:11,&quot;word&quot;:2}"></path><path d="M254.35648,353.37126c0,0.17955 -0.07054,0.34199 -0.21161,0.48734c-0.9533,0.76093 -2.02844,1.1414 -3.22542,1.1414c-1.41927,0 -2.62907,-0.50016 -3.6294,-1.50049c-1.00033,-1.00033 -1.50049,-2.21013 -1.50049,-3.6294c0,-1.41499 0.50016,-2.62266 1.50049,-3.62298c1.0046,-1.0046 2.2144,-1.5069 3.6294,-1.5069c1.21407,0 2.31059,0.3997 3.28954,1.19911c0.1197,0.11115 0.17955,0.26718 0.17955,0.4681c0,0.09832 -0.0171,0.1881 -0.0513,0.26932c-0.0342,0.08122 -0.08229,0.15283 -0.14428,0.21481c-0.06199,0.06199 -0.13466,0.11008 -0.21802,0.14428c-0.08336,0.0342 -0.17206,0.0513 -0.26611,0.0513c-0.17527,0 -0.33131,-0.06412 -0.4681,-0.19237c-0.32489,-0.25649 -0.68292,-0.45314 -1.07407,-0.58994c-0.39115,-0.1368 -0.80689,-0.2052 -1.2472,-0.2052c-1.04308,0 -1.9344,0.36978 -2.67395,1.10934c-0.73101,0.73101 -1.09651,1.61805 -1.09651,2.66113c0,1.04735 0.3655,1.93653 1.09651,2.66754c0.73528,0.73528 1.6266,1.10293 2.67395,1.10293c0.77376,0 1.46629,-0.20306 2.0776,-0.60917v-1.98783h-1.76981c-0.19237,0 -0.35375,-0.06519 -0.48413,-0.19558c-0.13038,-0.13038 -0.19558,-0.29176 -0.19558,-0.48413c0,-0.09405 0.0171,-0.18275 0.0513,-0.26611c0.0342,-0.08336 0.08229,-0.15603 0.14428,-0.21802c0.06199,-0.06199 0.13359,-0.11008 0.21481,-0.14428c0.08122,-0.0342 0.171,-0.0513 0.26932,-0.0513h2.45593c0.08977,0 0.17527,0.01817 0.25649,0.05451c0.08122,0.03634 0.15283,0.0855 0.21481,0.14748c0.06199,0.06199 0.11115,0.13466 0.14748,0.21802c0.03634,0.08336 0.05451,0.16993 0.05451,0.2597z" data-paper-data="{&quot;glyphName&quot;:&quot;G&quot;,&quot;glyphIndex&quot;:12,&quot;lastGlyphOfWord&quot;:true,&quot;word&quot;:2}"></path><path d="M264.74022,354.32029v-8.90036c0,-0.09405 0.0171,-0.18275 0.0513,-0.26611c0.0342,-0.08336 0.08229,-0.15603 0.14428,-0.21802c0.06199,-0.06199 0.13359,-0.11008 0.21481,-0.14428c0.08122,-0.0342 0.171,-0.0513 0.26932,-0.0513c0.26504,0 0.46596,0.12183 0.60276,0.3655l3.84742,7.68842l3.84742,-7.68842c0.1539,-0.24367 0.35482,-0.3655 0.60276,-0.3655c0.09405,0 0.18275,0.0171 0.26611,0.0513c0.08336,0.0342 0.15603,0.08229 0.21802,0.14428c0.06199,0.06199 0.11008,0.13466 0.14428,0.21802c0.0342,0.08336 0.0513,0.17206 0.0513,0.26611v8.90036c0,0.1881 -0.06626,0.3484 -0.19878,0.48093c-0.13252,0.13252 -0.29283,0.19878 -0.48093,0.19878c-0.1881,0 -0.3484,-0.06626 -0.48093,-0.19878c-0.13252,-0.13252 -0.19878,-0.29283 -0.19878,-0.48093v-6.01479l-3.18053,6.35465c-0.13252,0.22657 -0.32917,0.33986 -0.58994,0.33986c-0.28214,0 -0.48948,-0.1368 -0.622,-0.41039l-3.14847,-6.28411v6.01479c0,0.1881 -0.06626,0.3484 -0.19878,0.48093c-0.13252,0.13252 -0.29283,0.19878 -0.48093,0.19878c-0.1881,0 -0.3484,-0.06626 -0.48093,-0.19878c-0.13252,-0.13252 -0.19878,-0.29283 -0.19878,-0.48093z" data-paper-data="{&quot;glyphName&quot;:&quot;M&quot;,&quot;glyphIndex&quot;:13,&quot;firstGlyphOfWord&quot;:true,&quot;word&quot;:3}"></path><path d="M285.34741,353.64058c0.1881,0 0.3484,0.06626 0.48093,0.19878c0.13252,0.13252 0.19878,0.29283 0.19878,0.48093c0,0.1881 -0.06626,0.3484 -0.19878,0.48093c-0.13252,0.13252 -0.29283,0.19878 -0.48093,0.19878h-5.93143c-0.09832,0 -0.1881,-0.0171 -0.26932,-0.0513c-0.08122,-0.0342 -0.15283,-0.08229 -0.21481,-0.14428c-0.06199,-0.06199 -0.11008,-0.13359 -0.14428,-0.21481c-0.0342,-0.08122 -0.0513,-0.171 -0.0513,-0.26932v-8.90036c0,-0.09405 0.0171,-0.18275 0.0513,-0.26611c0.0342,-0.08336 0.08229,-0.15603 0.14428,-0.21802c0.06199,-0.06199 0.13359,-0.11008 0.21481,-0.14428c0.08122,-0.0342 0.171,-0.0513 0.26932,-0.0513h5.93143c0.1881,0 0.3484,0.06626 0.48093,0.19878c0.13252,0.13252 0.19878,0.29283 0.19878,0.48093c0,0.1881 -0.06626,0.3484 -0.19878,0.48093c-0.13252,0.13252 -0.29283,0.19878 -0.48093,0.19878h-5.25172v3.09076h3.77047c0.1881,0 0.3484,0.06626 0.48093,0.19878c0.13252,0.13252 0.19878,0.29283 0.19878,0.48093c0,0.1881 -0.06626,0.3484 -0.19878,0.48093c-0.13252,0.13252 -0.29283,0.19878 -0.48093,0.19878h-3.77047v3.09076z" data-paper-data="{&quot;glyphName&quot;:&quot;E&quot;,&quot;glyphIndex&quot;:14,&quot;word&quot;:3}"></path><path d="M296.29117,353.64058c0.1881,0 0.3484,0.06626 0.48093,0.19878c0.13252,0.13252 0.19878,0.29283 0.19878,0.48093c0,0.1881 -0.06626,0.3484 -0.19878,0.48093c-0.13252,0.13252 -0.29283,0.19878 -0.48093,0.19878h-5.93143c-0.09832,0 -0.1881,-0.0171 -0.26932,-0.0513c-0.08122,-0.0342 -0.15283,-0.08229 -0.21481,-0.14428c-0.06199,-0.06199 -0.11008,-0.13359 -0.14428,-0.21481c-0.0342,-0.08122 -0.0513,-0.171 -0.0513,-0.26932v-8.90036c0,-0.09405 0.0171,-0.18275 0.0513,-0.26611c0.0342,-0.08336 0.08229,-0.15603 0.14428,-0.21802c0.06199,-0.06199 0.13359,-0.11008 0.21481,-0.14428c0.08122,-0.0342 0.171,-0.0513 0.26932,-0.0513h5.93143c0.1881,0 0.3484,0.06626 0.48093,0.19878c0.13252,0.13252 0.19878,0.29283 0.19878,0.48093c0,0.1881 -0.06626,0.3484 -0.19878,0.48093c-0.13252,0.13252 -0.29283,0.19878 -0.48093,0.19878h-5.25172v3.09076h3.77047c0.1881,0 0.3484,0.06626 0.48093,0.19878c0.13252,0.13252 0.19878,0.29283 0.19878,0.48093c0,0.1881 -0.06626,0.3484 -0.19878,0.48093c-0.13252,0.13252 -0.29283,0.19878 -0.48093,0.19878h-3.77047v3.09076z" data-paper-data="{&quot;glyphName&quot;:&quot;E&quot;,&quot;glyphIndex&quot;:15,&quot;word&quot;:3}"></path><path d="M307.7351,346.09964h-2.53288v8.22065c0,0.1881 -0.06626,0.3484 -0.19878,0.48093c-0.13252,0.13252 -0.29283,0.19878 -0.48093,0.19878c-0.1881,0 -0.3484,-0.06626 -0.48093,-0.19878c-0.13252,-0.13252 -0.19878,-0.29283 -0.19878,-0.48093v-8.22065h-2.53288c-0.1881,0 -0.3484,-0.06626 -0.48093,-0.19878c-0.13252,-0.13252 -0.19878,-0.29283 -0.19878,-0.48093c0,-0.1881 0.06626,-0.3484 0.19878,-0.48093c0.13252,-0.13252 0.29283,-0.19878 0.48093,-0.19878h6.42518c0.1881,0 0.3484,0.06626 0.48093,0.19878c0.13252,0.13252 0.19878,0.29283 0.19878,0.48093c0,0.1881 -0.06626,0.3484 -0.19878,0.48093c-0.13252,0.13252 -0.29283,0.19878 -0.48093,0.19878z" data-paper-data="{&quot;glyphName&quot;:&quot;T&quot;,&quot;glyphIndex&quot;:16,&quot;word&quot;:3}"></path><path d="M314.47876,350.00477c-0.61986,-0.18382 -1.08796,-0.42108 -1.40431,-0.71177c-0.31634,-0.29069 -0.53757,-0.58887 -0.66368,-0.89452c-0.12611,-0.30566 -0.18916,-0.62948 -0.18916,-0.97147c0,-0.41894 0.07909,-0.79834 0.23726,-1.13819c0.15817,-0.33986 0.39115,-0.6423 0.69895,-0.90735h-0.00641c0.49161,-0.42749 1.06873,-0.64124 1.73134,-0.64124c0.21375,0 0.42749,0.02672 0.64124,0.08015c0.21375,0.05344 0.42001,0.13466 0.61879,0.24367c0.19878,0.10901 0.38474,0.24474 0.55788,0.40718c0.17313,0.16245 0.3281,0.35268 0.4649,0.5707c0.06412,0.11115 0.09619,0.23298 0.09619,0.3655c0,0.09832 -0.0171,0.1881 -0.0513,0.26932c-0.0342,0.08122 -0.08229,0.15283 -0.14428,0.21481c-0.06199,0.06199 -0.13466,0.11008 -0.21802,0.14428c-0.08336,0.0342 -0.17206,0.0513 -0.26611,0.0513c-0.0855,0 -0.16138,-0.01282 -0.22764,-0.03847c-0.06626,-0.02565 -0.12611,-0.06199 -0.17955,-0.10901c-0.05344,-0.04702 -0.10474,-0.10153 -0.1539,-0.16352c-0.04916,-0.06199 -0.10153,-0.13359 -0.1571,-0.21481c-0.1026,-0.14962 -0.2426,-0.26184 -0.42001,-0.33665c-0.17741,-0.07481 -0.36871,-0.11222 -0.57391,-0.11222c-0.16245,0 -0.32062,0.03313 -0.47451,0.09939c-0.1539,0.06626 -0.29069,0.1571 -0.41039,0.27253c-0.1197,0.11542 -0.21695,0.25222 -0.29176,0.41039c-0.07481,0.15817 -0.11222,0.32917 -0.11222,0.51299c0,0.32917 0.09084,0.58887 0.27253,0.7791c0.18168,0.19023 0.49482,0.34947 0.93941,0.47772c0.75238,0.21375 1.34232,0.50871 1.76981,0.88491c0.42749,0.37619 0.71818,0.74597 0.87208,1.10934c0.1539,0.36337 0.23084,0.74597 0.23084,1.14781c0,1.00033 -0.36978,1.81256 -1.10934,2.4367h0.00641c-0.59421,0.50444 -1.26965,0.75666 -2.02631,0.75666c-0.25222,0 -0.50444,-0.03099 -0.75666,-0.09298c-0.25222,-0.06199 -0.49482,-0.15283 -0.7278,-0.27253c-0.23298,-0.1197 -0.451,-0.26932 -0.65406,-0.44887c-0.20306,-0.17955 -0.3794,-0.3826 -0.52902,-0.60917c-0.08977,-0.11542 -0.13466,-0.25222 -0.13466,-0.41039c0,-0.09405 0.0171,-0.18275 0.0513,-0.26611c0.0342,-0.08336 0.08229,-0.15603 0.14428,-0.21802c0.06199,-0.06199 0.13359,-0.11008 0.21481,-0.14428c0.08122,-0.0342 0.171,-0.0513 0.26932,-0.0513c0.25222,0 0.44245,0.10474 0.5707,0.31421c0.17955,0.27787 0.40398,0.48734 0.6733,0.62841c0.26932,0.14107 0.56001,0.21161 0.87208,0.21161c0.24367,0 0.47345,-0.04809 0.68933,-0.14428c0.21588,-0.09619 0.40398,-0.2255 0.56429,-0.38795c0.16031,-0.16245 0.28749,-0.35375 0.38154,-0.57391c0.09405,-0.22016 0.14107,-0.45421 0.14107,-0.70215c0,-0.23512 -0.04382,-0.45635 -0.13145,-0.66368c-0.08764,-0.20733 -0.25649,-0.41253 -0.50658,-0.61559c-0.25008,-0.20306 -0.64658,-0.38581 -1.18949,-0.54826z" data-paper-data="{&quot;glyphName&quot;:&quot;S&quot;,&quot;glyphIndex&quot;:17,&quot;lastGlyphOfWord&quot;:true,&quot;word&quot;:3}"></path><path d="M334.47464,353.64058c0.1881,0 0.3484,0.06626 0.48093,0.19878c0.13252,0.13252 0.19878,0.29283 0.19878,0.48093c0,0.1881 -0.06626,0.3484 -0.19878,0.48093c-0.13252,0.13252 -0.29283,0.19878 -0.48093,0.19878h-5.93143c-0.09832,0 -0.1881,-0.0171 -0.26932,-0.0513c-0.08122,-0.0342 -0.15283,-0.08229 -0.21481,-0.14428c-0.06199,-0.06199 -0.11008,-0.13359 -0.14428,-0.21481c-0.0342,-0.08122 -0.0513,-0.171 -0.0513,-0.26932v-8.90036c0,-0.09405 0.0171,-0.18275 0.0513,-0.26611c0.0342,-0.08336 0.08229,-0.15603 0.14428,-0.21802c0.06199,-0.06199 0.13359,-0.11008 0.21481,-0.14428c0.08122,-0.0342 0.171,-0.0513 0.26932,-0.0513h5.93143c0.1881,0 0.3484,0.06626 0.48093,0.19878c0.13252,0.13252 0.19878,0.29283 0.19878,0.48093c0,0.1881 -0.06626,0.3484 -0.19878,0.48093c-0.13252,0.13252 -0.29283,0.19878 -0.48093,0.19878h-5.25172v3.09076h3.77047c0.1881,0 0.3484,0.06626 0.48093,0.19878c0.13252,0.13252 0.19878,0.29283 0.19878,0.48093c0,0.1881 -0.06626,0.3484 -0.19878,0.48093c-0.13252,0.13252 -0.29283,0.19878 -0.48093,0.19878h-3.77047v3.09076z" data-paper-data="{&quot;glyphName&quot;:&quot;E&quot;,&quot;glyphIndex&quot;:18,&quot;firstGlyphOfWord&quot;:true,&quot;word&quot;:4}"></path><path d="M339.9679,354.80122c-0.13252,0.13252 -0.29283,0.19878 -0.48093,0.19878c-0.1881,0 -0.3484,-0.06519 -0.48093,-0.19558c-0.13252,-0.13038 -0.19878,-0.28962 -0.19878,-0.47772c0,-0.16245 0.04916,-0.30566 0.14748,-0.42963l3.13564,-4.02696l-3.15488,-4.05261c-0.08122,-0.11542 -0.12183,-0.24794 -0.12183,-0.39757c0,-0.1881 0.06626,-0.3484 0.19878,-0.48093c0.13252,-0.13252 0.29283,-0.19878 0.48093,-0.19878c0.2052,0 0.3655,0.06626 0.48093,0.19878l2.98175,3.82177l2.98175,-3.82177c0.1197,-0.13252 0.28001,-0.19878 0.48093,-0.19878c0.1881,0 0.34734,0.06626 0.47772,0.19878c0.13038,0.13252 0.19558,0.29283 0.19558,0.48093c0,0.14962 -0.04061,0.28214 -0.12183,0.39757l-3.14847,4.05261l3.13564,4.02696c0.09405,0.12397 0.14107,0.26718 0.14107,0.42963c0,0.1881 -0.06519,0.34734 -0.19558,0.47772c-0.13038,0.13038 -0.28962,0.19558 -0.47772,0.19558c-0.22657,0 -0.40398,-0.08122 -0.53223,-0.24367l-2.93686,-3.77688z" data-paper-data="{&quot;glyphName&quot;:&quot;X&quot;,&quot;glyphIndex&quot;:19,&quot;word&quot;:4}"></path><path d="M357.63181,352.69155c0.09405,0 0.18168,0.01817 0.26291,0.05451c0.08122,0.03634 0.15283,0.08443 0.21481,0.14428c0.06199,0.05985 0.11115,0.13145 0.14748,0.21481c0.03634,0.08336 0.05451,0.17206 0.05451,0.26611c0,0.17955 -0.07054,0.34199 -0.21161,0.48734c-0.9533,0.76093 -2.02844,1.1414 -3.22542,1.1414c-1.41927,0 -2.62907,-0.50016 -3.6294,-1.50049c-1.00033,-1.00033 -1.50049,-2.21013 -1.50049,-3.6294c0,-1.41499 0.50016,-2.62266 1.50049,-3.62298c1.0046,-1.0046 2.2144,-1.5069 3.6294,-1.5069c1.21407,0 2.31059,0.3997 3.28954,1.19911c0.1197,0.11542 0.17955,0.27146 0.17955,0.4681c0,0.09832 -0.0171,0.1881 -0.0513,0.26932c-0.0342,0.08122 -0.08229,0.15283 -0.14428,0.21481c-0.06199,0.06199 -0.13466,0.11008 -0.21802,0.14428c-0.08336,0.0342 -0.17206,0.0513 -0.26611,0.0513c-0.16672,0 -0.32276,-0.06412 -0.4681,-0.19237c-0.32489,-0.25649 -0.68292,-0.45314 -1.07407,-0.58994c-0.39115,-0.1368 -0.80689,-0.2052 -1.2472,-0.2052c-1.04308,0 -1.9344,0.36978 -2.67395,1.10934c-0.73101,0.73101 -1.09651,1.61805 -1.09651,2.66113c0,1.04735 0.3655,1.93653 1.09651,2.66754c0.73528,0.73528 1.6266,1.10293 2.67395,1.10293c0.89346,0 1.68004,-0.27573 2.35975,-0.82719c0.11115,-0.07695 0.24367,-0.11756 0.39757,-0.12183z" data-paper-data="{&quot;glyphName&quot;:&quot;C&quot;,&quot;glyphIndex&quot;:20,&quot;word&quot;:4}"></path><path d="M368.56916,353.64058c0.1881,0 0.3484,0.06626 0.48093,0.19878c0.13252,0.13252 0.19878,0.29283 0.19878,0.48093c0,0.1881 -0.06626,0.3484 -0.19878,0.48093c-0.13252,0.13252 -0.29283,0.19878 -0.48093,0.19878h-5.93143c-0.09832,0 -0.1881,-0.0171 -0.26932,-0.0513c-0.08122,-0.0342 -0.15283,-0.08229 -0.21481,-0.14428c-0.06199,-0.06199 -0.11008,-0.13359 -0.14428,-0.21481c-0.0342,-0.08122 -0.0513,-0.171 -0.0513,-0.26932v-8.90036c0,-0.09405 0.0171,-0.18275 0.0513,-0.26611c0.0342,-0.08336 0.08229,-0.15603 0.14428,-0.21802c0.06199,-0.06199 0.13359,-0.11008 0.21481,-0.14428c0.08122,-0.0342 0.171,-0.0513 0.26932,-0.0513h5.93143c0.1881,0 0.3484,0.06626 0.48093,0.19878c0.13252,0.13252 0.19878,0.29283 0.19878,0.48093c0,0.1881 -0.06626,0.3484 -0.19878,0.48093c-0.13252,0.13252 -0.29283,0.19878 -0.48093,0.19878h-5.25172v3.09076h3.77047c0.1881,0 0.3484,0.06626 0.48093,0.19878c0.13252,0.13252 0.19878,0.29283 0.19878,0.48093c0,0.1881 -0.06626,0.3484 -0.19878,0.48093c-0.13252,0.13252 -0.29283,0.19878 -0.48093,0.19878h-3.77047v3.09076z" data-paper-data="{&quot;glyphName&quot;:&quot;E&quot;,&quot;glyphIndex&quot;:21,&quot;word&quot;:4}"></path><path d="M372.89536,345.41993c0,-0.1881 0.06626,-0.3484 0.19878,-0.48093c0.13252,-0.13252 0.29283,-0.19878 0.48093,-0.19878c0.1881,0 0.3484,0.06626 0.48093,0.19878c0.13252,0.13252 0.19878,0.29283 0.19878,0.48093v8.22065h4.75797c0.1881,0 0.3484,0.06626 0.48093,0.19878c0.13252,0.13252 0.19878,0.29283 0.19878,0.48093c0,0.1881 -0.06626,0.3484 -0.19878,0.48093c-0.13252,0.13252 -0.29283,0.19878 -0.48093,0.19878h-5.43768c-0.09832,0 -0.1881,-0.0171 -0.26932,-0.0513c-0.08122,-0.0342 -0.15283,-0.08229 -0.21481,-0.14428c-0.06199,-0.06199 -0.11008,-0.13359 -0.14428,-0.21481c-0.0342,-0.08122 -0.0513,-0.171 -0.0513,-0.26932z" data-paper-data="{&quot;glyphName&quot;:&quot;L&quot;,&quot;glyphIndex&quot;:22,&quot;word&quot;:4}"></path><path d="M383.32614,345.41993c0,-0.1881 0.06626,-0.3484 0.19878,-0.48093c0.13252,-0.13252 0.29283,-0.19878 0.48093,-0.19878c0.1881,0 0.3484,0.06626 0.48093,0.19878c0.13252,0.13252 0.19878,0.29283 0.19878,0.48093v8.22065h4.75797c0.1881,0 0.3484,0.06626 0.48093,0.19878c0.13252,0.13252 0.19878,0.29283 0.19878,0.48093c0,0.1881 -0.06626,0.3484 -0.19878,0.48093c-0.13252,0.13252 -0.29283,0.19878 -0.48093,0.19878h-5.43768c-0.09832,0 -0.1881,-0.0171 -0.26932,-0.0513c-0.08122,-0.0342 -0.15283,-0.08229 -0.21481,-0.14428c-0.06199,-0.06199 -0.11008,-0.13359 -0.14428,-0.21481c-0.0342,-0.08122 -0.0513,-0.171 -0.0513,-0.26932z" data-paper-data="{&quot;glyphName&quot;:&quot;L&quot;,&quot;glyphIndex&quot;:23,&quot;word&quot;:4}"></path><path d="M400.37446,353.64058c0.1881,0 0.3484,0.06626 0.48093,0.19878c0.13252,0.13252 0.19878,0.29283 0.19878,0.48093c0,0.1881 -0.06626,0.3484 -0.19878,0.48093c-0.13252,0.13252 -0.29283,0.19878 -0.48093,0.19878h-5.93143c-0.09832,0 -0.1881,-0.0171 -0.26932,-0.0513c-0.08122,-0.0342 -0.15283,-0.08229 -0.21481,-0.14428c-0.06199,-0.06199 -0.11008,-0.13359 -0.14428,-0.21481c-0.0342,-0.08122 -0.0513,-0.171 -0.0513,-0.26932v-8.90036c0,-0.09405 0.0171,-0.18275 0.0513,-0.26611c0.0342,-0.08336 0.08229,-0.15603 0.14428,-0.21802c0.06199,-0.06199 0.13359,-0.11008 0.21481,-0.14428c0.08122,-0.0342 0.171,-0.0513 0.26932,-0.0513h5.93143c0.1881,0 0.3484,0.06626 0.48093,0.19878c0.13252,0.13252 0.19878,0.29283 0.19878,0.48093c0,0.1881 -0.06626,0.3484 -0.19878,0.48093c-0.13252,0.13252 -0.29283,0.19878 -0.48093,0.19878h-5.25172v3.09076h3.77047c0.1881,0 0.3484,0.06626 0.48093,0.19878c0.13252,0.13252 0.19878,0.29283 0.19878,0.48093c0,0.1881 -0.06626,0.3484 -0.19878,0.48093c-0.13252,0.13252 -0.29283,0.19878 -0.48093,0.19878h-3.77047v3.09076z" data-paper-data="{&quot;glyphName&quot;:&quot;E&quot;,&quot;glyphIndex&quot;:24,&quot;word&quot;:4}"></path><path d="M404.7135,354.32029v-8.90036c0,-0.09405 0.0171,-0.18275 0.0513,-0.26611c0.0342,-0.08336 0.08229,-0.15603 0.14428,-0.21802c0.06199,-0.06199 0.13359,-0.11008 0.21481,-0.14428c0.08122,-0.0342 0.171,-0.0513 0.26932,-0.0513c0.20092,0 0.37619,0.08336 0.52581,0.25008l5.71983,7.35498v-6.92535c0,-0.1881 0.06626,-0.3484 0.19878,-0.48093c0.13252,-0.13252 0.29283,-0.19878 0.48093,-0.19878c0.1881,0 0.3484,0.06626 0.48093,0.19878c0.13252,0.13252 0.19878,0.29283 0.19878,0.48093v8.90036c0,0.09832 -0.0171,0.1881 -0.0513,0.26932c-0.0342,0.08122 -0.08229,0.15283 -0.14428,0.21481c-0.06199,0.06199 -0.13466,0.11008 -0.21802,0.14428c-0.08336,0.0342 -0.17206,0.0513 -0.26611,0.0513c-0.20092,0 -0.37405,-0.07909 -0.5194,-0.23726l-5.72624,-7.35498v6.91252c0,0.1881 -0.06626,0.3484 -0.19878,0.48093c-0.13252,0.13252 -0.29283,0.19878 -0.48093,0.19878c-0.1881,0 -0.3484,-0.06626 -0.48093,-0.19878c-0.13252,-0.13252 -0.19878,-0.29283 -0.19878,-0.48093z" data-paper-data="{&quot;glyphName&quot;:&quot;N&quot;,&quot;glyphIndex&quot;:25,&quot;word&quot;:4}"></path><path d="M424.57685,352.69155c0.09405,0 0.18168,0.01817 0.26291,0.05451c0.08122,0.03634 0.15283,0.08443 0.21481,0.14428c0.06199,0.05985 0.11115,0.13145 0.14748,0.21481c0.03634,0.08336 0.05451,0.17206 0.05451,0.26611c0,0.17955 -0.07054,0.34199 -0.21161,0.48734c-0.9533,0.76093 -2.02844,1.1414 -3.22542,1.1414c-1.41927,0 -2.62907,-0.50016 -3.6294,-1.50049c-1.00033,-1.00033 -1.50049,-2.21013 -1.50049,-3.6294c0,-1.41499 0.50016,-2.62266 1.50049,-3.62298c1.0046,-1.0046 2.2144,-1.5069 3.6294,-1.5069c1.21407,0 2.31059,0.3997 3.28954,1.19911c0.1197,0.11542 0.17955,0.27146 0.17955,0.4681c0,0.09832 -0.0171,0.1881 -0.0513,0.26932c-0.0342,0.08122 -0.08229,0.15283 -0.14428,0.21481c-0.06199,0.06199 -0.13466,0.11008 -0.21802,0.14428c-0.08336,0.0342 -0.17206,0.0513 -0.26611,0.0513c-0.16672,0 -0.32276,-0.06412 -0.4681,-0.19237c-0.32489,-0.25649 -0.68292,-0.45314 -1.07407,-0.58994c-0.39115,-0.1368 -0.80689,-0.2052 -1.2472,-0.2052c-1.04308,0 -1.9344,0.36978 -2.67395,1.10934c-0.73101,0.73101 -1.09651,1.61805 -1.09651,2.66113c0,1.04735 0.3655,1.93653 1.09651,2.66754c0.73528,0.73528 1.6266,1.10293 2.67395,1.10293c0.89346,0 1.68004,-0.27573 2.35975,-0.82719c0.11115,-0.07695 0.24367,-0.11756 0.39757,-0.12183z" data-paper-data="{&quot;glyphName&quot;:&quot;C&quot;,&quot;glyphIndex&quot;:26,&quot;word&quot;:4}"></path><path d="M435.5142,353.64058c0.1881,0 0.3484,0.06626 0.48093,0.19878c0.13252,0.13252 0.19878,0.29283 0.19878,0.48093c0,0.1881 -0.06626,0.3484 -0.19878,0.48093c-0.13252,0.13252 -0.29283,0.19878 -0.48093,0.19878h-5.93143c-0.09832,0 -0.1881,-0.0171 -0.26932,-0.0513c-0.08122,-0.0342 -0.15283,-0.08229 -0.21481,-0.14428c-0.06199,-0.06199 -0.11008,-0.13359 -0.14428,-0.21481c-0.0342,-0.08122 -0.0513,-0.171 -0.0513,-0.26932v-8.90036c0,-0.09405 0.0171,-0.18275 0.0513,-0.26611c0.0342,-0.08336 0.08229,-0.15603 0.14428,-0.21802c0.06199,-0.06199 0.13359,-0.11008 0.21481,-0.14428c0.08122,-0.0342 0.171,-0.0513 0.26932,-0.0513h5.93143c0.1881,0 0.3484,0.06626 0.48093,0.19878c0.13252,0.13252 0.19878,0.29283 0.19878,0.48093c0,0.1881 -0.06626,0.3484 -0.19878,0.48093c-0.13252,0.13252 -0.29283,0.19878 -0.48093,0.19878h-5.25172v3.09076h3.77047c0.1881,0 0.3484,0.06626 0.48093,0.19878c0.13252,0.13252 0.19878,0.29283 0.19878,0.48093c0,0.1881 -0.06626,0.3484 -0.19878,0.48093c-0.13252,0.13252 -0.29283,0.19878 -0.48093,0.19878h-3.77047v3.09076z" data-paper-data="{&quot;glyphName&quot;:&quot;E&quot;,&quot;glyphIndex&quot;:27,&quot;lastGlyphOfWord&quot;:true,&quot;word&quot;:4}"></path></g><g data-paper-data="{&quot;isPrimaryText&quot;:true}" fill-rule="nonzero"><path d="M119.56823,298.48895c-2.1382,0 -4.23879,0.64102 -5.92237,1.7339c-0.93968,0.61005 -2.17913,-0.07301 -2.17913,-1.19354h-1.81244c-1.83235,0 -3.31847,1.48557 -3.31847,3.31847v36.65031h5.13091v-9.69381c0,-2.05635 1.85834,-3.66083 3.87708,-3.27035c0.91866,0.17754 1.88102,0.27101 2.87435,0.27101c8.1015,0 13.50286,-6.53518 13.50286,-14.15107c-0.00055,-8.2099 -4.86156,-13.66491 -12.1528,-13.66491zM118.54172,325.00852c-1.72284,0 -3.36438,-0.719 -4.67241,-1.96785c-1.58734,-1.51599 -2.40313,-3.67078 -2.40313,-5.86595v-12.14893c0,-0.51989 0.18196,-1.02651 0.51547,-1.42528c1.51322,-1.80857 3.46227,-2.95123 5.20945,-2.95123c5.34717,0 8.91176,5.23931 8.91176,13.07091c0.00055,6.10322 -3.02423,11.28834 -7.56114,11.28834z" data-paper-data="{&quot;glyphName&quot;:&quot;p&quot;,&quot;glyphIndex&quot;:0,&quot;firstGlyphOfWord&quot;:true,&quot;word&quot;:1}"></path><path d="M147.60358,298.48895c-1.86387,0 -3.61603,0.7367 -5.05237,2.02759c-1.07574,0.96623 -2.77922,0.25497 -2.77922,-1.19078v-0.29645h-1.81244c-1.83235,0 -3.31847,1.48557 -3.31847,3.31847v23.6867h5.13091v-19.02812c0,-1.90536 0.78648,-3.76978 2.27426,-4.96001c0.94466,-0.75606 2.04086,-1.18082 3.18076,-1.18082c1.1681,0 1.91863,0.73062 1.94407,1.83346c0.03595,1.58402 1.14377,2.9645 2.72447,3.07125c2.00602,0.13606 3.32566,-1.07961 3.32566,-3.01428c-0.00055,-2.53863 -2.26873,-4.267 -5.61762,-4.267z" data-paper-data="{&quot;glyphName&quot;:&quot;r&quot;,&quot;glyphIndex&quot;:1,&quot;word&quot;:1}"></path><path d="M155.31226,302.34748v23.68725h5.13091v-27.00573h-1.81244c-1.8329,0 -3.31847,1.48557 -3.31847,3.31847zM158.15453,285.02339h-0.55308c0,2.28753 -1.86056,4.14809 -4.14809,4.14809v0.55308c2.28753,0 4.14809,1.86056 4.14809,4.14809h0.55308c0,-2.28753 1.86056,-4.14809 4.14809,-4.14809v-0.55308c-2.28753,0 -4.14809,-1.86056 -4.14809,-4.14809z" data-paper-data="{&quot;glyphName&quot;:&quot;&quot;,&quot;glyphIndex&quot;:2,&quot;word&quot;:1}"></path><path d="M178.71051,298.48895c-2.08732,0 -4.36047,1.13547 -6.3333,3.04304c-1.04532,1.01048 -2.79471,0.24778 -2.79471,-1.20571v-1.29697h-1.81244c-1.8329,0 -3.31847,1.48557 -3.31847,3.31847v23.6867h5.13091v-19.16141c0,-0.67531 0.19358,-1.34343 0.58958,-1.89042c1.77649,-2.45401 4.47164,-4.00927 7.07996,-4.00927c2.53863,0 3.83505,2.97059 3.83505,7.39964v17.66146h5.13091v-17.66146c0,-5.94117 -2.53863,-9.88407 -7.50749,-9.88407z" data-paper-data="{&quot;glyphName&quot;:&quot;n&quot;,&quot;glyphIndex&quot;:3,&quot;word&quot;:1}"></path><path d="M205.95567,320.3068c-0.32466,-0.05863 -0.64821,0.12057 -0.76436,0.42919c-0.77708,2.07405 -2.33067,3.40807 -4.72384,3.40807c-2.53863,0 -4.267,-1.67417 -4.267,-6.04958l0.12942,-13.07976c0.0177,-1.81963 1.49829,-3.28584 3.31847,-3.28584h4.92406v-2.70068h-8.2099v-6.48042h-0.55529c-0.81026,0 -1.47451,0.64157 -1.51212,1.45128c-0.18141,3.85385 -1.24332,5.21221 -4.94176,5.47935c-0.91534,0.06637 -1.63269,0.81137 -1.63269,1.72948v0.52211h3.51094v15.17703c0,6.96769 3.07844,9.66782 7.66954,9.66782c3.30907,0 6.23375,-2.20734 7.4638,-5.53632c0.11836,-0.32023 -0.07356,-0.67144 -0.40928,-0.73172z" data-paper-data="{&quot;glyphName&quot;:&quot;t&quot;,&quot;glyphIndex&quot;:4,&quot;word&quot;:1}"></path><path d="M211.99313,285.52589c-1.83235,0 -3.31847,1.48557 -3.31847,3.31847v37.19012h5.13091v-40.50859z" data-paper-data="{&quot;glyphName&quot;:&quot;l&quot;,&quot;glyphIndex&quot;:5,&quot;word&quot;:1}"></path><path d="M236.12256,299.02854l-4.88135,13.17439c-0.79127,2.40913 -4.13697,2.57121 -5.15862,0.25064l-5.9059,-13.42503h-1.38227c-1.99642,0 -3.33469,2.04967 -2.53184,3.87765l7.8809,17.94403c1.43494,3.26639 1.53392,6.96518 0.27205,10.30219c-0.56668,1.49919 -1.12989,3.00012 -1.70005,4.49643c-0.48622,1.24219 -1.24219,2.1064 -1.4581,2.1064c-1.53335,0 -1.53798,-2.78827 -4.07561,-1.1681c-0.68014,0.43413 -1.11021,1.17389 -1.10964,1.98079c0.00058,1.67285 1.08127,2.75238 2.75412,2.75238c1.45868,0 3.99747,-1.99815 5.13083,-5.02317l3.72657,-9.72161l10.26283,-27.5464h-1.82392z" data-paper-data="{&quot;glyphName&quot;:&quot;y&quot;,&quot;glyphIndex&quot;:6,&quot;lastGlyphOfWord&quot;:true,&quot;word&quot;:1}"></path><path d="M267.08501,310.80368c-4.2128,-1.13436 -5.8206,-3.78085 -5.8206,-6.85983c0,-3.02479 1.28314,-4.46998 4.03803,-4.46998c0.63549,0 1.27042,0.10066 1.88766,0.28981c2.41087,0.73891 4.32674,3.13209 5.67404,5.15248c0.10785,0.16205 0.16205,0.3241 0.2699,0.48616h0.21625v-4.07011c0,-0.48782 -0.29092,-0.92862 -0.73947,-1.12054l-0.99831,-0.42753c-1.9944,-0.85285 -4.14035,-1.29365 -6.31007,-1.29531c-4.69896,0 -7.83159,2.80853 -7.83159,7.02133c0,4.05075 2.59283,7.39964 7.56169,8.74971c4.05075,1.08016 5.05127,3.40254 5.05127,6.04958c0,3.51094 -0.94632,5.28024 -4.02475,5.28024c-3.74324,0 -6.20056,-3.69678 -8.04785,-6.46826c-0.10785,-0.16205 -0.16205,-0.3241 -0.2699,-0.48616h-0.21625v4.32563c0,0.5387 0.33295,1.01048 0.82796,1.22175c0.88437,0.37775 1.70348,0.90539 2.58122,1.3202c1.74109,0.82243 3.29856,1.07187 5.12483,1.07187c5.18511,0 8.64185,-3.02479 8.64185,-7.56169c-0.00055,-3.72664 -2.59283,-6.85928 -7.61589,-8.20935z" data-paper-data="{&quot;glyphName&quot;:&quot;s&quot;,&quot;glyphIndex&quot;:7,&quot;firstGlyphOfWord&quot;:true,&quot;word&quot;:2}"></path><path d="M304.87778,310.06528c-1.46388,-8.29767 -8.02387,-12.84445 -16.42805,-11.36262c-8.40417,1.48125 -13.01405,7.99841 -11.55074,16.29607c1.46331,8.29824 8.0233,12.84503 16.42805,11.3632c8.40475,-1.48183 13.01347,-7.99898 11.55074,-16.29665zM293.27031,326.04241c-5.05327,0.89083 -9.36099,-3.94363 -10.7861,-12.02887c-1.42568,-8.08581 0.9684,-14.10169 6.02167,-14.99252c5.05269,-0.89083 9.41425,3.93379 10.83993,12.0196c1.4251,8.08465 -1.02223,14.11037 -6.0755,15.00179z" data-paper-data="{&quot;glyphName&quot;:&quot;o&quot;,&quot;glyphIndex&quot;:8,&quot;word&quot;:2}"></path><path d="M311.43778,285.52589c-1.83235,0 -3.31847,1.48557 -3.31847,3.31847v37.19012h5.13091v-40.50859z" data-paper-data="{&quot;glyphName&quot;:&quot;l&quot;,&quot;glyphIndex&quot;:9,&quot;word&quot;:2}"></path><path d="M333.66893,299.02875v17.14101c0,3.68848 -2.92191,6.8001 -6.61095,6.83992c-0.02876,0.00055 -0.05752,0.00055 -0.08683,0.00055c-2.86274,0 -4.80681,-2.26873 -4.80681,-5.61707v-18.36443h-1.81244c-1.83235,0 -3.31847,1.48557 -3.31847,3.31847v15.0454c0,5.50922 3.02479,9.18221 7.56169,9.18221c1.93633,0 3.83284,-0.80362 5.46884,-2.20402c1.41754,-1.21345 3.60552,-0.20187 3.60552,1.66421h2.59283l0.0542,-0.03097c0.74887,-0.21017 1.76377,-0.46514 2.48443,-0.67144v-26.30387z" data-paper-data="{&quot;glyphName&quot;:&quot;u&quot;,&quot;glyphIndex&quot;:10,&quot;word&quot;:2}"></path><path d="M359.34817,320.3068c-0.32466,-0.05863 -0.64821,0.12057 -0.76436,0.42919c-0.77708,2.07405 -2.33067,3.40807 -4.72384,3.40807c-2.53863,0 -4.267,-1.67417 -4.267,-6.04958l0.12942,-13.07976c0.0177,-1.81963 1.49829,-3.28584 3.31847,-3.28584h4.92406v-2.70068h-8.2099v-6.48042h-0.55529c-0.81026,0 -1.47451,0.64157 -1.51212,1.45128c-0.18141,3.85385 -1.24332,5.21221 -4.94176,5.47935c-0.91534,0.06637 -1.63269,0.81137 -1.63269,1.72948v0.52211h3.51094v15.17703c0,6.96769 3.07844,9.66782 7.66954,9.66782c3.30907,0 6.23375,-2.20734 7.4638,-5.53632c0.11836,-0.32023 -0.07356,-0.67144 -0.40928,-0.73172z" data-paper-data="{&quot;glyphName&quot;:&quot;t&quot;,&quot;glyphIndex&quot;:11,&quot;word&quot;:2}"></path><path d="M362.01588,302.34748v23.68725h5.13091v-27.00573h-1.81244c-1.8329,0 -3.31847,1.48557 -3.31847,3.31847zM364.85815,285.02339h-0.55308c0,2.28753 -1.86056,4.14809 -4.14809,4.14809v0.55308c2.28753,0 4.14809,1.86056 4.14809,4.14809h0.55308c0,-2.28753 1.86056,-4.14809 4.14809,-4.14809v-0.55308c-2.28753,0 -4.14809,-1.86056 -4.14809,-4.14809z" data-paper-data="{&quot;glyphName&quot;:&quot;&quot;,&quot;glyphIndex&quot;:12,&quot;word&quot;:2}"></path><path d="M398.36037,310.06528c-1.46388,-8.29767 -8.02387,-12.84445 -16.42805,-11.36262c-8.40417,1.48125 -13.01405,7.99841 -11.55074,16.29607c1.46331,8.29824 8.0233,12.84503 16.42805,11.3632c8.40475,-1.48183 13.01347,-7.99898 11.55074,-16.29665zM386.7529,326.04241c-5.05327,0.89083 -9.36099,-3.94363 -10.7861,-12.02887c-1.42568,-8.08581 0.9684,-14.10169 6.02167,-14.99252c5.05269,-0.89083 9.41425,3.93379 10.83993,12.0196c1.4251,8.08465 -1.02223,14.11037 -6.0755,15.00179z" data-paper-data="{&quot;glyphName&quot;:&quot;o&quot;,&quot;glyphIndex&quot;:13,&quot;word&quot;:2}"></path><path d="M415.80321,298.48895c-2.08732,0 -4.36047,1.13547 -6.3333,3.04304c-1.04532,1.01048 -2.79471,0.24778 -2.79471,-1.20571v-1.29697h-1.81244c-1.8329,0 -3.31847,1.48557 -3.31847,3.31847v23.6867h5.13091v-19.16141c0,-0.67531 0.19358,-1.34343 0.58958,-1.89042c1.77649,-2.45401 4.47164,-4.00927 7.07996,-4.00927c2.53863,0 3.83505,2.97059 3.83505,7.39964v17.66146h5.13091v-17.66146c0,-5.94117 -2.53863,-9.88407 -7.50749,-9.88407z" data-paper-data="{&quot;glyphName&quot;:&quot;n&quot;,&quot;glyphIndex&quot;:14,&quot;word&quot;:2}"></path><path d="M436.04828,310.80368c-4.2128,-1.13436 -5.8206,-3.78085 -5.8206,-6.85983c0,-3.02479 1.28314,-4.46998 4.03803,-4.46998c0.63549,0 1.27042,0.10066 1.88766,0.28981c2.41087,0.73891 4.32674,3.13209 5.67404,5.15248c0.10785,0.16205 0.16205,0.3241 0.2699,0.48616h0.21625v-4.07011c0,-0.48782 -0.29092,-0.92862 -0.73947,-1.12054l-0.99831,-0.42753c-1.9944,-0.85285 -4.14035,-1.29365 -6.31007,-1.29531c-4.69896,0 -7.83159,2.80853 -7.83159,7.02133c0,4.05075 2.59283,7.39964 7.56169,8.74971c4.05075,1.08016 5.05127,3.40254 5.05127,6.04958c0,3.51094 -0.94632,5.28024 -4.02475,5.28024c-3.74324,0 -6.20056,-3.69678 -8.04785,-6.46826c-0.10785,-0.16205 -0.16205,-0.3241 -0.2699,-0.48616h-0.21625v4.32563c0,0.5387 0.33295,1.01048 0.82796,1.22175c0.88437,0.37775 1.70348,0.90539 2.58122,1.3202c1.74109,0.82243 3.29856,1.07187 5.12483,1.07187c5.18511,0 8.64185,-3.02479 8.64185,-7.56169c-0.00055,-3.72664 -2.59283,-6.85928 -7.61589,-8.20935z" data-paper-data="{&quot;glyphName&quot;:&quot;s&quot;,&quot;glyphIndex&quot;:15,&quot;lastGlyphOfWord&quot;:true,&quot;word&quot;:2}"></path></g><g data-paper-data="{&quot;fillRule&quot;:&quot;evenodd&quot;,&quot;fillRuleOriginal&quot;:&quot;evenodd&quot;,&quot;isIcon&quot;:true,&quot;iconStyle&quot;:&quot;standalone&quot;,&quot;selectedEffects&quot;:{&quot;container&quot;:&quot;&quot;,&quot;transformation&quot;:&quot;&quot;,&quot;pattern&quot;:&quot;&quot;},&quot;bounds&quot;:{&quot;x&quot;:204.14412378400985,&quot;y&quot;:115.00000000000001,&quot;width&quot;:141.71175243198033,&quot;height&quot;:140.50335334156625},&quot;iconType&quot;:&quot;initial&quot;,&quot;initialText&quot;:&quot;PS&quot;,&quot;rawInitialId&quot;:493,&quot;disableIconEffects&quot;:&quot;true&quot;,&quot;monogramSpecial&quot;:&quot;half-moon&quot;,&quot;suitableAsStandaloneIcon&quot;:true}" fill-rule="evenodd"><path d="M204.14412,185.25168c0,-38.79919 31.45275,-70.25168 70.25168,-70.25168c16.36226,0 31.418,5.59373 43.35929,14.97346c-9.09389,-5.06363 -19.567,-7.9484 -30.71397,-7.9484c-34.91906,0 -63.22651,28.30766 -63.22651,63.22661c0,34.91906 28.30745,63.22651 63.22651,63.22651c11.14697,0 21.62009,-2.88462 30.71397,-7.94814c-11.94129,9.37953 -26.99703,14.97331 -43.35929,14.97331c-38.79893,0 -70.25168,-31.45275 -70.25168,-70.25168zM345.85588,185.25168c0,31.03914 -25.1623,56.20134 -56.2015,56.20134c-13.08983,0 -25.13441,-4.47504 -34.68738,-11.97861c7.27495,4.0508 15.65354,6.35846 24.57114,6.35846c27.93548,0 50.5815,-22.64597 50.5815,-50.58119c0,-27.93548 -22.64602,-50.58098 -50.5815,-50.58098c-8.91759,0 -17.29618,2.3073 -24.57114,6.35809c9.55298,-7.50357 21.59755,-11.97866 34.68738,-11.97866c31.03919,0 56.2015,25.1623 56.2015,56.20155zM247.2997,205.59251v-14.6555h-2.08462c-0.58959,0 -1.09495,-0.21057 -1.51609,-0.6317c-0.42114,-0.42114 -0.6317,-0.9265 -0.6317,-1.51609c0,-0.58959 0.21057,-1.0739 0.6317,-1.45292c0.42114,-0.42114 0.9265,-0.6317 1.51609,-0.6317h2.08462v-22.7413l0.12634,-0.31585v-0.06317c0.12634,-0.25268 0.27374,-0.48431 0.44219,-0.69487c0.21057,-0.16846 0.44219,-0.31585 0.69487,-0.44219l0.31585,-0.06317l0.12634,-0.06317l0.37902,-0.06317l10.61261,0.06317c4.21135,0 7.83312,1.38975 10.86529,4.16924c2.99006,2.77949 4.48509,6.14857 4.48509,10.10725c0,3.91656 -1.49503,7.28564 -4.48509,10.10725c-3.03217,2.77949 -6.65394,4.16924 -10.86529,4.16924l-4.92728,0.06317h-3.53754v14.6555c0,0.58959 -0.21057,1.09495 -0.6317,1.51609c-0.42114,0.42114 -0.9265,0.6317 -1.51609,0.6317c-0.58959,0 -1.09495,-0.21057 -1.51609,-0.6317c-0.37902,-0.42114 -0.56853,-0.9265 -0.56853,-1.51609zM306.93245,194.22186c0,3.87444 -1.49503,7.18035 -4.48509,9.91774c-1.43186,1.34763 -3.03217,2.35836 -4.80094,3.03217c-1.81088,0.71593 -3.76916,1.0739 -5.87484,1.0739c-4.16924,0 -7.72783,-1.36869 -10.67578,-4.10607c-2.94795,-2.73738 -4.42192,-6.04329 -4.42192,-9.91774c0,-0.58959 0.21057,-1.09495 0.6317,-1.51609c0.42114,-0.42114 0.9265,-0.6317 1.51609,-0.6317c0.58959,0 1.09495,0.21057 1.51609,0.6317c0.42114,0.42114 0.6317,0.9265 0.6317,1.51609c0,2.69527 1.05284,4.99045 3.15852,6.88556c2.10567,1.89511 4.65354,2.84266 7.64361,2.84266c2.99006,0 5.55899,-0.94755 7.70678,-2.84266c2.10567,-1.89511 3.15852,-4.19029 3.15852,-6.88556c0,-1.72665 -0.48431,-3.34803 -1.45292,-4.86411c-0.54748,-0.88438 -1.66348,-1.60031 -3.34803,-2.14779c-0.71593,-0.25268 -1.5582,-0.48431 -2.52681,-0.69487l-2.65315,-0.56853l-2.40047,-0.44219c-0.88438,-0.21057 -1.66348,-0.42114 -2.3373,-0.6317c-1.68454,-0.46325 -3.01112,-1.0739 -3.97973,-1.83194h-0.06317c-3.1164,-2.35836 -4.6746,-5.39053 -4.6746,-9.09652c0,-3.24274 1.24235,-6.00118 3.72705,-8.27531c2.44259,-2.27413 5.39053,-3.4112 8.84384,-3.4112c3.49542,0 6.46443,1.13707 8.90701,3.4112c2.4847,2.27413 3.72705,5.03256 3.72705,8.27531c0,0.58959 -0.21057,1.09495 -0.6317,1.51609c-0.42114,0.42114 -0.9265,0.6317 -1.51609,0.6317c-0.58959,0 -1.09495,-0.21057 -1.51609,-0.6317c-0.42114,-0.42114 -0.6317,-0.9265 -0.6317,-1.51609c0,-2.06357 -0.82121,-3.81127 -2.46364,-5.24314c-1.60031,-1.47397 -3.55859,-2.21096 -5.87484,-2.21096c-2.27413,0 -4.21135,0.73699 -5.81167,2.21096c-1.64243,1.43186 -2.46364,3.17957 -2.46364,5.24314c0,2.27413 0.96861,4.14818 2.90583,5.62216c0.67382,0.50536 1.7056,0.94755 3.09535,1.32658c0.54748,0.16846 1.20024,0.31585 1.95828,0.44219l2.02145,0.44219c1.47397,0.2948 2.56893,0.52642 3.28486,0.69487c1.17918,0.2948 2.21096,0.61065 3.09535,0.94755c2.18991,0.84227 3.79022,2.0004 4.80094,3.47437l0.18951,0.25268c1.38975,2.14779 2.08462,4.50615 2.08462,7.07507zM259.99693,166.55327h-8.46482v20.15132h3.47437l4.92728,-0.06317c3.07429,0 5.70638,-0.98967 7.89629,-2.969c2.18991,-1.97933 3.28486,-4.33769 3.28486,-7.07507c0,-2.77949 -1.09495,-5.13785 -3.28486,-7.07507c-2.18991,-1.97933 -4.80094,-2.969 -7.83312,-2.969z" data-paper-data="{&quot;isPathIcon&quot;:true}"></path></g></g></g></svg>