<svg xmlns="http://www.w3.org/2000/svg" xmlns:xlink="http://www.w3.org/1999/xlink" version="1.1" width="1000" height="1000" viewBox="0 0 1000 1000" xml:space="preserve">
<desc>Created with Fabric.js 3.5.0</desc>
<defs>
</defs>
<rect x="0" y="0" width="100%" height="100%" fill="#ffffff"/>
<g transform="matrix(1.9756 0 0 1.9756 500.0105 512.0718)" id="864667">
<g style="" vector-effect="non-scaling-stroke">
		<g transform="matrix(1 0 0 1 -10.5388 41.1442)" id="element-id-17781">
<path style="stroke: none; stroke-width: 1; stroke-dasharray: none; stroke-linecap: butt; stroke-dashoffset: 0; stroke-linejoin: miter; stroke-miterlimit: 10; is-custom-font: none; font-file-url: none; fill: rgb(44,213,196); fill-rule: nonzero; opacity: 1;" transform=" translate(-264.4612, -276.1442)" d="M 261.17149 285.64361 v -3.28972 h 2.26965 c 5.02384 0 8.26255 -3.36623 8.26255 -8.23705 c 0 -4.13128 -3.41723 -7.472 -7.88003 -7.472 h -6.60494 v 18.99877 z M 261.17149 278.78365 v -8.56857 h 2.39716 c 2.75418 0 4.15678 1.88713 4.15678 4.20778 c 0 2.65218 -1.58111 4.36079 -4.38629 4.36079 z" stroke-linecap="round"/>
</g>
		<g transform="matrix(1 0 0 1 35.4061 41.1442)" id="element-id-15027">
<path style="stroke: none; stroke-width: 1; stroke-dasharray: none; stroke-linecap: butt; stroke-dashoffset: 0; stroke-linejoin: miter; stroke-miterlimit: 10; is-custom-font: none; font-file-url: none; fill: rgb(44,213,196); fill-rule: nonzero; opacity: 1;" transform=" translate(-310.4061, -276.1442)" d="M 309.10553 282.35389 l 3.11121 3.28972 h 5.25335 l -4.10578 -4.38629 c 2.65218 -1.22408 4.28429 -3.72325 4.28429 -7.14048 c 0 -4.13128 -3.41723 -7.472 -7.88003 -7.472 h -6.60494 v 18.99877 h 3.95277 v -3.28972 z M 307.1164 278.78365 v -8.56857 h 2.39716 c 2.75418 0 4.15678 1.88713 4.15678 4.20778 c 0 2.65218 -1.58111 4.36079 -4.38629 4.36079 z" stroke-linecap="round"/>
</g>
		<g transform="matrix(1 0 0 1 70.6103 41.1442)" id="element-id-20451">
<path style="stroke: none; stroke-width: 1; stroke-dasharray: none; stroke-linecap: butt; stroke-dashoffset: 0; stroke-linejoin: miter; stroke-miterlimit: 10; is-custom-font: none; font-file-url: none; fill: rgb(44,213,196); fill-rule: nonzero; opacity: 1;" transform=" translate(-345.6103, -276.1442)" d="M 347.5867 266.64483 h -3.95277 v 18.99877 h 3.95277 z" stroke-linecap="round"/>
</g>
		<g transform="matrix(1 0 0 1 110.6777 41.1315)" id="element-id-19478">
<path style="stroke: none; stroke-width: 1; stroke-dasharray: none; stroke-linecap: butt; stroke-dashoffset: 0; stroke-linejoin: miter; stroke-miterlimit: 10; is-custom-font: none; font-file-url: none; fill: rgb(44,213,196); fill-rule: nonzero; opacity: 1;" transform=" translate(-385.6777, -276.1315)" d="M 390.45931 277.63607 l -13.51591 -11.34826 v 19.3558 h 3.95277 v -10.91473 l 13.51591 11.24625 v -19.3303 h -3.95277 z" stroke-linecap="round"/>
</g>
		<g transform="matrix(1 0 0 1 157.923 41.1442)" id="element-id-21624">
<path style="stroke: none; stroke-width: 1; stroke-dasharray: none; stroke-linecap: butt; stroke-dashoffset: 0; stroke-linejoin: miter; stroke-miterlimit: 10; is-custom-font: none; font-file-url: none; fill: rgb(44,213,196); fill-rule: nonzero; opacity: 1;" transform=" translate(-432.923, -276.1442)" d="M 434.74634 285.64361 v -15.42853 h 4.99834 v -3.57024 h -13.64341 v 3.57024 h 4.69231 v 15.42853 z" stroke-linecap="round"/>
</g>
		<g transform="matrix(1 0 0 1 12.7889 -16.5223)" id="element-id-2937">
<path style="stroke: none; stroke-width: 1; stroke-dasharray: none; stroke-linecap: butt; stroke-dashoffset: 0; stroke-linejoin: miter; stroke-miterlimit: 10; is-custom-font: none; font-file-url: none; fill: rgb(255,255,255); fill-rule: nonzero; opacity: 1;" transform=" translate(-287.7889, -218.4777)" d="M 304.5244 223.74378 l -47.30567 -39.71891 v 67.74529 h 13.83468 v -38.20156 l 47.30567 39.36189 v -67.65604 h -13.83468 z" stroke-linecap="round"/>
</g>
		<g transform="matrix(1 0 0 1 76.6515 -16.4776)" id="element-id-68309">
<path style="stroke: none; stroke-width: 1; stroke-dasharray: none; stroke-linecap: butt; stroke-dashoffset: 0; stroke-linejoin: miter; stroke-miterlimit: 10; is-custom-font: none; font-file-url: none; fill: rgb(255,255,255); fill-rule: nonzero; opacity: 1;" transform=" translate(-351.6516, -218.5223)" d="M 372.26969 251.77016 v -12.49584 h -27.40159 v -16.60161 h 24.99168 v -12.49584 h -24.99168 v -12.40658 h 21.51069 v -12.49584 h -35.34537 v 66.49571 z" stroke-linecap="round"/>
</g>
		<g transform="matrix(1 0 0 1 131.7671 -16.4777)" id="element-id-49007">
<path style="stroke: none; stroke-width: 1; stroke-dasharray: none; stroke-linecap: butt; stroke-dashoffset: 0; stroke-linejoin: miter; stroke-miterlimit: 10; is-custom-font: none; font-file-url: none; fill: rgb(255,255,255); fill-rule: nonzero; opacity: 1;" transform=" translate(-406.7671, -218.5223)" d="M 397.26137 217.58512 l -21.33218 34.18504 h 14.63798 l 15.44129 -24.72391 l 16.06608 24.72391 h 15.53054 l -22.76028 -34.98835 l 19.90408 -31.50736 h -14.63798 l -14.01319 22.22474 l -14.37021 -22.22474 h -15.6198 z" stroke-linecap="round"/>
</g>
		<g transform="matrix(1 0 0 1 186.124 -16.4776)" id="element-id-54977">
<path style="stroke: none; stroke-width: 1; stroke-dasharray: none; stroke-linecap: butt; stroke-dashoffset: 0; stroke-linejoin: miter; stroke-miterlimit: 10; is-custom-font: none; font-file-url: none; fill: rgb(255,255,255); fill-rule: nonzero; opacity: 1;" transform=" translate(-461.124, -218.5223)" d="M 467.50583 251.77016 v -53.99987 h 17.49417 v -12.49584 h -47.75195 v 12.49584 h 16.4231 v 53.99987 z" stroke-linecap="round"/>
</g>
		<g transform="matrix(1 0 0 1 -133.5972 0)" id="element-id-3193">
<path style="stroke: none; stroke-width: 1; stroke-dasharray: none; stroke-linecap: butt; stroke-dashoffset: 0; stroke-linejoin: miter; stroke-miterlimit: 10; is-custom-font: none; font-file-url: none; fill: rgb(44,213,196); fill-rule: nonzero; opacity: 1;" transform=" translate(-141.4028, -235)" d="M 101.724 221.49232 v 6.47243 l 23.07562 10.97499 v -6.61314 z M 174.04637 192.08498 v 51.92014 l 22.93492 10.69358 v -8.58301 l -17.16601 -7.31666 l 0.70352 -1.68846 l 30.39228 13.50768 l 0.70352 -1.68846 l -14.63332 -6.61314 v -56.4227 h -23.07562 v 6.19102 z M 217.80562 276.36727 l -20.82434 -10.27146 v 0 l -62.61372 -29.26664 l 15.19614 21.94998 l 47.41759 23.35703 v -11.53781 z M 149.7044 260.88972 l -11.39711 -5.20609 l -0.84423 1.68846 l 16.32178 7.45737 l 13.36698 19.27658 h 29.54805 z M 101.724 237.25128 v 46.85476 h 23.07562 v -35.45766 z M 67.11057 213.75355 v -0.1407 l -1.26635 -0.56282 l -0.84423 1.68846 l 26.87465 12.66345 l -1.12564 2.39199 l 34.05061 16.7439 v -5.6282 z M 163.21208 238.93974 l -36.724 -53.04578 h -24.76408 v 19.41729 l -12.80416 -1.12564 z" stroke-linecap="round"/>
</g>
		<g transform="matrix(1 0 0 1 96 -16.5)">
<rect style="stroke: none; stroke-width: 2; stroke-dasharray: none; stroke-linecap: butt; stroke-dashoffset: 0; stroke-linejoin: miter; stroke-miterlimit: 4; is-custom-font: none; font-file-url: none; fill: rgb(255,255,255); fill-opacity: 0; fill-rule: nonzero; opacity: 1;" x="-114" y="-34.5" rx="0" ry="0" width="228" height="69"/>
</g>
		<g transform="matrix(1 0 0 1 -133.5 0)">
<rect style="stroke: none; stroke-width: 2; stroke-dasharray: none; stroke-linecap: butt; stroke-dashoffset: 0; stroke-linejoin: miter; stroke-miterlimit: 4; is-custom-font: none; font-file-url: none; fill: rgb(255,255,255); fill-opacity: 0; fill-rule: nonzero; opacity: 1;" x="-76.5" y="-49" rx="0" ry="0" width="153" height="98"/>
</g>
		<g transform="matrix(1 0 0 1 -133.5 0)">
<rect style="stroke: none; stroke-width: 2; stroke-dasharray: none; stroke-linecap: butt; stroke-dashoffset: 0; stroke-linejoin: miter; stroke-miterlimit: 4; is-custom-font: none; font-file-url: none; fill: rgb(255,255,255); fill-opacity: 0; fill-rule: nonzero; opacity: 1;" x="-76.5" y="-49" rx="0" ry="0" width="153" height="98"/>
</g>
		<g transform="matrix(1 0 0 1 12.5 -16.5)">
<rect style="stroke: none; stroke-width: 2; stroke-dasharray: none; stroke-linecap: butt; stroke-dashoffset: 0; stroke-linejoin: miter; stroke-miterlimit: 4; is-custom-font: none; font-file-url: none; fill: rgb(255,255,255); fill-opacity: 0; fill-rule: nonzero; opacity: 1;" x="-30.5" y="-34.5" rx="0" ry="0" width="61" height="69"/>
</g>
		<g transform="matrix(1 0 0 1 132 -17)">
<rect style="stroke: none; stroke-width: 2; stroke-dasharray: none; stroke-linecap: butt; stroke-dashoffset: 0; stroke-linejoin: miter; stroke-miterlimit: 4; is-custom-font: none; font-file-url: none; fill: rgb(255,255,255); fill-opacity: 0; fill-rule: nonzero; opacity: 1;" x="-31" y="-33" rx="0" ry="0" width="62" height="66"/>
</g>
		<g transform="matrix(1 0 0 1 73.5 41)">
<rect style="stroke: none; stroke-width: 2; stroke-dasharray: none; stroke-linecap: butt; stroke-dashoffset: 0; stroke-linejoin: miter; stroke-miterlimit: 4; is-custom-font: none; font-file-url: none; fill: rgb(255,255,255); fill-opacity: 0; fill-rule: nonzero; opacity: 1;" x="-91.5" y="-10" rx="0" ry="0" width="183" height="20"/>
</g>
		<g transform="matrix(1 0 0 1 186 -17)">
<rect style="stroke: none; stroke-width: 2; stroke-dasharray: none; stroke-linecap: butt; stroke-dashoffset: 0; stroke-linejoin: miter; stroke-miterlimit: 4; is-custom-font: none; font-file-url: none; fill: rgb(255,255,255); fill-opacity: 0; fill-rule: nonzero; opacity: 1;" x="-24" y="-33" rx="0" ry="0" width="48" height="66"/>
</g>
		<g transform="matrix(1 0 0 1 76.5 -17)">
<rect style="stroke: none; stroke-width: 2; stroke-dasharray: none; stroke-linecap: butt; stroke-dashoffset: 0; stroke-linejoin: miter; stroke-miterlimit: 4; is-custom-font: none; font-file-url: none; fill: rgb(255,255,255); fill-opacity: 0; fill-rule: nonzero; opacity: 1;" x="-20.5" y="-33" rx="0" ry="0" width="41" height="66"/>
</g>
		<g transform="matrix(1 0 0 1 110.5 41)">
<rect style="stroke: none; stroke-width: 2; stroke-dasharray: none; stroke-linecap: butt; stroke-dashoffset: 0; stroke-linejoin: miter; stroke-miterlimit: 4; is-custom-font: none; font-file-url: none; fill: rgb(255,255,255); fill-opacity: 0; fill-rule: nonzero; opacity: 1;" x="-8.5" y="-10" rx="0" ry="0" width="17" height="20"/>
</g>
		<g transform="matrix(1 0 0 1 -11 41.5)">
<rect style="stroke: none; stroke-width: 2; stroke-dasharray: none; stroke-linecap: butt; stroke-dashoffset: 0; stroke-linejoin: miter; stroke-miterlimit: 4; is-custom-font: none; font-file-url: none; fill: rgb(255,255,255); fill-opacity: 0; fill-rule: nonzero; opacity: 1;" x="-7" y="-9.5" rx="0" ry="0" width="14" height="19"/>
</g>
		<g transform="matrix(1 0 0 1 35 41.5)">
<rect style="stroke: none; stroke-width: 2; stroke-dasharray: none; stroke-linecap: butt; stroke-dashoffset: 0; stroke-linejoin: miter; stroke-miterlimit: 4; is-custom-font: none; font-file-url: none; fill: rgb(255,255,255); fill-opacity: 0; fill-rule: nonzero; opacity: 1;" x="-7" y="-9.5" rx="0" ry="0" width="14" height="19"/>
</g>
		<g transform="matrix(1 0 0 1 158 41.5)">
<rect style="stroke: none; stroke-width: 2; stroke-dasharray: none; stroke-linecap: butt; stroke-dashoffset: 0; stroke-linejoin: miter; stroke-miterlimit: 4; is-custom-font: none; font-file-url: none; fill: rgb(255,255,255); fill-opacity: 0; fill-rule: nonzero; opacity: 1;" x="-7" y="-9.5" rx="0" ry="0" width="14" height="19"/>
</g>
		<g transform="matrix(1 0 0 1 71 41.5)">
<rect style="stroke: none; stroke-width: 2; stroke-dasharray: none; stroke-linecap: butt; stroke-dashoffset: 0; stroke-linejoin: miter; stroke-miterlimit: 4; is-custom-font: none; font-file-url: none; fill: rgb(255,255,255); fill-opacity: 0; fill-rule: nonzero; opacity: 1;" x="-2" y="-9.5" rx="0" ry="0" width="4" height="19"/>
</g>
</g>
</g>
</svg>